<svg width="60" height="60" viewBox="0 0 60 60" fill="none" xmlns="http://www.w3.org/2000/svg">
<circle cx="30" cy="30" r="30" fill="#1C344E"/>
<path d="M22.8267 28.3867C24.7467 32.16 27.84 35.24 31.6133 37.1733L34.5467 34.24C34.9067 33.88 35.44 33.76 35.9067 33.92C37.4 34.4133 39.0133 34.68 40.6667 34.68C41.4 34.68 42 35.28 42 36.0133V40.6667C42 41.4 41.4 42 40.6667 42C28.1467 42 18 31.8533 18 19.3333C18 18.6 18.6 18 19.3333 18H24C24.7333 18 25.3333 18.6 25.3333 19.3333C25.3333 21 25.6 22.6 26.0933 24.0933C26.24 24.56 26.1333 25.08 25.76 25.4533L22.8267 28.3867Z" fill="white"/>
</svg>
