<svg id="Layer_2" data-name="Layer 2" xmlns="http://www.w3.org/2000/svg" viewBox="0 0 512 512"><defs><style>.cls-1{fill:#77acf0;}.cls-1,.cls-2,.cls-3{stroke:#213e58;stroke-miterlimit:10;stroke-width:17px;}.cls-2{fill:none;}.cls-3{fill:#f1730d;}</style></defs><path class="cls-1" d="M307.74,492c-107.55,0-195-87.49-195-195s87.49-195,195-195,195,87.5,195,195S415.28,492,307.74,492Zm0-330.67c-74.79,0-135.64,60.84-135.64,135.63S233,432.56,307.74,432.56s135.64-60.85,135.64-135.64S382.53,161.29,307.74,161.29Z"/><line class="cls-2" x1="147.76" y1="185.48" x2="75.57" y2="185.48"/><line class="cls-2" x1="120.6" y1="241.93" y2="241.93"/><line class="cls-2" x1="111.67" y1="303.19" x2="60.3" y2="303.19"/><line class="cls-2" x1="125.31" y1="365.9" x2="40.59" y2="365.9"/><line class="cls-2" x1="22.11" y1="365.9" y2="365.9"/><line class="cls-1" x1="307.74" y1="65.86" x2="307.74" y2="101.88"/><rect class="cls-1" x="273.66" y="65.86" width="68.17" height="36.03"/><circle class="cls-2" cx="307.74" cy="296.92" r="21.01"/><line class="cls-2" x1="322.4" y1="281.88" x2="374.13" y2="230.16"/><line class="cls-2" x1="397.94" y1="296.92" x2="422.58" y2="296.92"/><line class="cls-2" x1="192.89" y1="296.92" x2="217.54" y2="296.92"/><line class="cls-2" x1="307.74" y1="181.63" x2="307.74" y2="206.27"/><line class="cls-2" x1="307.74" y1="387.57" x2="307.74" y2="412.22"/><line class="cls-2" x1="291.39" y1="283.73" x2="260.32" y2="252.66"/><rect class="cls-3" x="236.95" y="20.24" width="141.58" height="48.86" rx="24.43"/></svg>