<svg width="201" height="61" viewBox="0 0 201 61" fill="none" xmlns="http://www.w3.org/2000/svg">
<path fill-rule="evenodd" clip-rule="evenodd" d="M27.2201 46.159L41.1122 38.1537V22.4172L27.2201 14.4119L13.2925 22.4186V38.1523L27.2201 46.159ZM28.9128 50.1428C27.8692 50.7442 26.5758 50.7449 25.5316 50.1445L10.5865 41.5528C9.56317 40.9645 8.93436 39.8879 8.93436 38.7241V21.8468C8.93436 20.6829 9.56317 19.6064 10.5865 19.018L25.5316 10.4263C26.5758 9.82605 27.8692 9.82669 28.9128 10.428L43.8212 19.0189C44.8429 19.6077 45.4704 20.6833 45.4704 21.846V38.7249C45.4704 39.8875 44.8429 40.9632 43.8212 41.5519L28.9128 50.1428Z" fill="#FF8400"/>
<path fill-rule="evenodd" clip-rule="evenodd" d="M27.2091 35.7579L32.0324 32.9954V27.5768L27.2091 24.8143L22.3718 27.5783V32.994L27.2091 35.7579ZM28.894 39.7443C27.8544 40.3398 26.5686 40.3405 25.5283 39.746L19.6735 36.4007C18.6458 35.8135 18.0136 34.7345 18.0136 33.5676V27.0047C18.0136 25.8377 18.6458 24.7588 19.6735 24.1715L25.5283 20.8262C26.5686 20.2318 27.8544 20.2325 28.894 20.8279L34.7337 24.1724C35.7597 24.7601 36.3906 25.8381 36.3906 27.0039V33.5684C36.3906 34.7341 35.7597 35.8121 34.7337 36.3998L28.894 39.7443Z" fill="#0095DA"/>
<path fill-rule="evenodd" clip-rule="evenodd" d="M27.2439 56.5628L8.22291 45.5862C7.18552 44.9875 5.84997 45.3274 5.23987 46.3453C4.62976 47.3632 4.97613 48.6736 6.01349 49.2722L25.5507 60.5468C26.5973 61.1507 27.8954 61.1501 28.9414 60.545L52.8326 46.7253C53.8517 46.1359 54.4771 45.0617 54.4771 43.9011V25.8315C54.4771 24.6507 53.5015 23.6934 52.298 23.6934C51.0945 23.6934 50.1189 24.6507 50.1189 25.8315V43.331L27.2439 56.5628Z" fill="#0095DA"/>
<path fill-rule="evenodd" clip-rule="evenodd" d="M27.2332 4.43642L46.2542 15.413C47.2916 16.0117 48.6271 15.6718 49.2372 14.6539C49.8473 13.6361 49.5009 12.3256 48.4636 11.727L28.9264 0.452516C27.8798 -0.151453 26.5816 -0.150796 25.5357 0.454233L1.64447 14.274C0.625462 14.8634 3.13488e-05 15.9375 3.13488e-05 17.0982L3.05176e-05 35.1677C3.05176e-05 36.3486 0.975645 37.3058 2.17912 37.3058C3.38259 37.3058 4.35821 36.3486 4.35821 35.1677V17.6683L27.2332 4.43642Z" fill="#0095DA"/>
<path d="M69.861 11.7881H74.771V13.014H71.2728V20.3447H69.861V11.7881Z" fill="white"/>
<path d="M76.7929 11.7881H78.1672V16.6548L78.0299 18.4201H78.0676L78.9422 16.8387L82.29 11.7881H83.5648V20.3447H82.1905V15.478L82.3278 13.7127H82.29L81.4155 15.2941L78.0676 20.3447H76.7929V11.7881Z" fill="white"/>
<path d="M86.337 11.7881H91.9089V13.014H87.7483V15.147H90.1845C90.993 15.147 91.6177 15.384 92.0586 15.858C92.5002 16.3238 92.721 16.9531 92.721 17.7458C92.721 18.5386 92.5002 19.172 92.0586 19.6459C91.6177 20.1118 90.993 20.3447 90.1845 20.3447H86.337V11.7881ZM90.0974 19.1311C90.4555 19.1311 90.7344 19.0371 90.9342 18.8491C91.1346 18.6612 91.2341 18.3792 91.2341 18.0033V17.4884C91.2341 17.1125 91.1346 16.8306 90.9342 16.6425C90.7344 16.4546 90.4555 16.3606 90.0974 16.3606H87.7483V19.1311H90.0974Z" fill="white"/>
<path d="M95.0145 20.3447V11.7881H98.7625C99.5702 11.7881 100.195 12.021 100.637 12.4868C101.077 12.9527 101.298 13.5779 101.298 14.3624C101.298 15.147 101.077 15.7722 100.637 16.238C100.195 16.7038 99.5702 16.9367 98.7625 16.9367H96.4258V20.3447H95.0145ZM96.4258 15.7231H98.6746C99.0327 15.7231 99.3124 15.6333 99.5121 15.4534C99.7119 15.2655 99.8121 14.9999 99.8121 14.6566V14.0682C99.8121 13.725 99.7119 13.4635 99.5121 13.2836C99.3124 13.0957 99.0327 13.0017 98.6746 13.0017H96.4258V15.7231Z" fill="white"/>
<path d="M103.471 11.7881H104.845V16.6548L104.708 18.4201H104.746L105.62 16.8387L108.968 11.7881H110.243V20.3447H108.869V15.478L109.006 13.7127H108.968L108.094 15.2941L104.746 20.3447H103.471V11.7881Z" fill="white"/>
<path d="M112.103 19.1188H113.027C113.194 18.9145 113.344 18.6734 113.477 18.3955C113.619 18.1095 113.736 17.7785 113.827 17.4026C113.927 17.0185 114.002 16.5812 114.051 16.0909C114.102 15.5924 114.127 15.0244 114.127 14.3869V11.7881H119.812V19.1188H121.11V22.1835H119.798V20.3447H113.414V22.1835H112.103V19.1188ZM118.4 19.1188V13.014H115.488V14.5463C115.488 15.1592 115.468 15.7027 115.426 16.1767C115.393 16.6507 115.339 17.0716 115.264 17.4394C115.197 17.799 115.11 18.1136 115.002 18.3833C114.901 18.6448 114.785 18.8736 114.651 19.0698V19.1188H118.4Z" fill="white"/>
<path d="M128.54 16.618H124.592V20.3447H123.18V11.7881H124.592V15.3921H128.54V11.7881H129.951V20.3447H128.54V16.618Z" fill="white"/>
<path d="M132.724 11.7881H134.135V15.0734H136.572C137.379 15.0734 138.004 15.3105 138.446 15.7844C138.887 16.2503 139.108 16.8918 139.108 17.709C139.108 18.5263 138.887 19.172 138.446 19.6459C138.004 20.1118 137.379 20.3447 136.572 20.3447H132.724V11.7881ZM136.485 19.1311C136.843 19.1311 137.122 19.0371 137.321 18.8491C137.521 18.6612 137.621 18.3792 137.621 18.0033V17.4148C137.621 17.0389 137.521 16.757 137.321 16.569C137.122 16.381 136.843 16.287 136.485 16.287H134.135V19.1311H136.485ZM140.408 11.7881H141.819V20.3447H140.408V11.7881Z" fill="white"/>
<path d="M144.597 20.3447V11.7881H150.182V13.014H146.009V15.3921H149.794V16.618H146.009V19.1188H150.182V20.3447H144.597Z" fill="white"/>
<path d="M75.2206 31.4413H71.2728V35.1679H69.861V26.6113H71.2728V30.2154H75.2206V26.6113H76.6327V35.1679H75.2206V31.4413Z" fill="white"/>
<path d="M84.8519 35.1679L84.0645 32.851H80.8038L80.0419 35.1679H78.6051L81.5789 26.6113H83.3526L86.3264 35.1679H84.8519ZM82.4657 27.8862H82.4033L81.1416 31.6619H83.7151L82.4657 27.8862Z" fill="white"/>
<path d="M93.661 31.4413H89.7132V35.1679H88.3012V26.6113H89.7132V30.2154H93.661V26.6113H95.0723V35.1679H93.661V31.4413Z" fill="white"/>
<path d="M101.218 35.3147C100.651 35.3147 100.135 35.2207 99.6687 35.0327C99.2104 34.8366 98.8145 34.5546 98.4818 34.1869C98.1572 33.811 97.9029 33.3492 97.7199 32.8016C97.5448 32.2459 97.4569 31.6085 97.4569 30.8893C97.4569 30.1701 97.5448 29.5367 97.7199 28.9892C97.9029 28.4335 98.1572 27.9717 98.4818 27.6039C98.8145 27.228 99.2104 26.9461 99.6687 26.7581C100.135 26.5619 100.651 26.4639 101.218 26.4639C101.784 26.4639 102.297 26.5619 102.754 26.7581C103.221 26.9461 103.616 27.228 103.941 27.6039C104.275 27.9717 104.529 28.4335 104.703 28.9892C104.887 29.5367 104.978 30.1701 104.978 30.8893C104.978 31.6085 104.887 32.2459 104.703 32.8016C104.529 33.3492 104.275 33.811 103.941 34.1869C103.616 34.5546 103.221 34.8366 102.754 35.0327C102.297 35.2207 101.784 35.3147 101.218 35.3147ZM101.218 34.0765C101.551 34.0765 101.855 34.0194 102.13 33.9049C102.413 33.7905 102.65 33.6271 102.842 33.4146C103.042 33.1939 103.196 32.9283 103.304 32.6177C103.412 32.3072 103.467 31.9558 103.467 31.5635V30.215C103.467 29.8228 103.412 29.4714 103.304 29.1608C103.196 28.8503 103.042 28.5888 102.842 28.3762C102.65 28.1556 102.413 27.9881 102.13 27.8736C101.855 27.7592 101.551 27.702 101.218 27.702C100.876 27.702 100.568 27.7592 100.293 27.8736C100.018 27.9881 99.7813 28.1556 99.5808 28.3762C99.3898 28.5888 99.2394 28.8503 99.1312 29.1608C99.023 29.4714 98.9692 29.8228 98.9692 30.215V31.5635C98.9692 31.9558 99.023 32.3072 99.1312 32.6177C99.2394 32.9283 99.3898 33.1939 99.5808 33.4146C99.7813 33.6271 100.018 33.7905 100.293 33.9049C100.568 34.0194 100.876 34.0765 101.218 34.0765Z" fill="white"/>
<path d="M110.637 35.3147C109.496 35.3147 108.6 34.9388 107.951 34.1869C107.301 33.4268 106.976 32.3277 106.976 30.8893C106.976 30.1701 107.059 29.5367 107.226 28.9892C107.393 28.4417 107.634 27.9799 107.951 27.6039C108.267 27.228 108.65 26.9461 109.1 26.7581C109.558 26.5619 110.07 26.4639 110.637 26.4639C111.394 26.4639 112.028 26.6274 112.535 26.9542C113.052 27.2811 113.456 27.7633 113.748 28.4007L112.561 29.0382C112.41 28.6296 112.177 28.3068 111.861 28.0698C111.553 27.8246 111.144 27.702 110.637 27.702C109.962 27.702 109.433 27.9268 109.05 28.3762C108.667 28.8257 108.475 29.4469 108.475 30.2395V31.539C108.475 32.3317 108.667 32.9529 109.05 33.4023C109.433 33.8518 109.962 34.0765 110.637 34.0765C111.161 34.0765 111.586 33.9458 111.911 33.6842C112.244 33.4146 112.49 33.0713 112.648 32.6545L113.785 33.3287C113.493 33.9499 113.085 34.4362 112.561 34.7875C112.036 35.139 111.394 35.3147 110.637 35.3147Z" fill="white"/>
<path d="M119.105 27.8372V35.1679H117.694V27.8372H115.095V26.6113H121.704V27.8372H119.105Z" fill="white"/>
<path d="M123.705 35.1679V26.6113H127.453C128.261 26.6113 128.886 26.8442 129.327 27.3101C129.768 27.7759 129.989 28.4011 129.989 29.1857C129.989 29.9702 129.768 30.5954 129.327 31.0612C128.886 31.5271 128.261 31.76 127.453 31.76H125.117V35.1679H123.705ZM125.117 30.5464H127.366C127.724 30.5464 128.003 30.4565 128.202 30.2767C128.402 30.0887 128.502 29.8231 128.502 29.4799V28.8914C128.502 28.5482 128.402 28.2867 128.202 28.1069C128.003 27.9189 127.724 27.8249 127.366 27.8249H125.117V30.5464Z" fill="white"/>
<path d="M132.7 33.942H134.075L134.399 33.1575L131.251 26.6113H132.751L134.349 29.9825L135.036 31.5638H135.087L135.674 29.958L137.035 26.6113H138.447L135.387 34.0278C135.295 34.2485 135.199 34.4324 135.099 34.5795C134.999 34.7266 134.882 34.8451 134.75 34.935C134.616 35.0167 134.458 35.078 134.274 35.1189C134.099 35.1516 133.887 35.1679 133.637 35.1679H132.7V33.942Z" fill="white"/>
<path d="M140.364 26.6113H141.775V30.2154H143.288L144.836 27.543C145.028 27.2079 145.228 26.971 145.436 26.832C145.653 26.6849 145.915 26.6113 146.224 26.6113H146.885V27.8372H146.099L144.849 29.9947C144.708 30.2318 144.574 30.4034 144.449 30.5096C144.333 30.6159 144.187 30.6976 144.012 30.7548V30.8161C144.212 30.857 144.382 30.9264 144.524 31.0245C144.665 31.1225 144.811 31.3024 144.961 31.5638L146.348 33.942H147.11V35.1679H146.248C145.974 35.1679 145.736 35.1026 145.536 34.9718C145.336 34.8329 145.136 34.5918 144.936 34.2485L143.288 31.429H141.775V35.1679H140.364V26.6113Z" fill="white"/>
<path d="M152.57 27.8372V35.1679H151.158V27.8372H148.559V26.6113H155.168V27.8372H152.57Z" fill="white"/>
<path d="M157.878 33.942H159.252L159.577 33.1575L156.429 26.6113H157.928L159.527 29.9825L160.215 31.5638H160.264L160.852 29.958L162.214 26.6113H163.625L160.564 34.0278C160.472 34.2485 160.377 34.4324 160.277 34.5795C160.177 34.7266 160.06 34.8451 159.927 34.935C159.793 35.0167 159.636 35.078 159.452 35.1189C159.278 35.1516 159.065 35.1679 158.815 35.1679H157.878V33.942Z" fill="white"/>
<path d="M165.541 35.1679V26.6113H169.289C170.097 26.6113 170.721 26.8442 171.163 27.3101C171.604 27.7759 171.825 28.4011 171.825 29.1857C171.825 29.9702 171.604 30.5954 171.163 31.0612C170.721 31.5271 170.097 31.76 169.289 31.76H166.952V35.1679H165.541ZM166.952 30.5464H169.201C169.559 30.5464 169.839 30.4565 170.038 30.2767C170.238 30.0887 170.338 29.8231 170.338 29.4799V28.8914C170.338 28.5482 170.238 28.2867 170.038 28.1069C169.839 27.9189 169.559 27.8249 169.201 27.8249H166.952V30.5464Z" fill="white"/>
<path d="M179.358 31.4413H175.41V35.1679H173.998V26.6113H175.41V30.2154H179.358V26.6113H180.77V35.1679H179.358V31.4413Z" fill="white"/>
<path d="M183.541 26.6113H184.953V29.8967H187.389C188.197 29.8967 188.822 30.1337 189.263 30.6077C189.705 31.0735 189.925 31.7151 189.925 32.5323C189.925 33.3496 189.705 33.9952 189.263 34.4692C188.822 34.935 188.197 35.1679 187.389 35.1679H183.541V26.6113ZM187.302 33.9543C187.66 33.9543 187.939 33.8604 188.139 33.6723C188.339 33.4844 188.439 33.2025 188.439 32.8265V32.2381C188.439 31.8622 188.339 31.5802 188.139 31.3922C187.939 31.2043 187.66 31.1103 187.302 31.1103H184.953V33.9543H187.302ZM191.225 26.6113H192.636V35.1679H191.225V26.6113Z" fill="white"/>
<path d="M195.416 35.1679V26.6113H201V27.8372H196.827V30.2154H200.613V31.4413H196.827V33.942H201V35.1679H195.416Z" fill="white"/>
<path d="M76.5324 43.447H76.47L75.7828 44.8322L73.8711 48.2524L71.9599 44.8322L71.2728 43.447H71.2103V49.9931H69.861V41.4365H71.5351L73.8711 45.7884H73.9466L76.2826 41.4365H77.882V49.9931H76.5324V43.447Z" fill="white"/>
<path d="M86.108 49.9931L85.3206 47.6762H82.06L81.298 49.9931H79.8613L82.835 41.4365H84.6088L87.5825 49.9931H86.108ZM83.7219 42.7114H83.6595L82.3978 46.4871H84.9713L83.7219 42.7114Z" fill="white"/>
<path d="M91.9763 42.6624V49.9931H90.5643V42.6624H87.9653V41.4365H94.5745V42.6624H91.9763Z" fill="white"/>
<path d="M96.5761 49.9931V41.4365H102.16V42.6624H97.9874V45.0406H101.773V46.2665H97.9874V48.7672H102.16V49.9931H96.5761Z" fill="white"/>
<path d="M104.606 49.9931V41.4365H108.354C109.163 41.4365 109.787 41.6694 110.228 42.1353C110.67 42.6011 110.891 43.2263 110.891 44.0109C110.891 44.7954 110.67 45.4206 110.228 45.8864C109.787 46.3523 109.163 46.5852 108.354 46.5852H106.018V49.9931H104.606ZM106.018 45.3716H108.267C108.625 45.3716 108.904 45.2817 109.104 45.1019C109.304 44.9139 109.404 44.6483 109.404 44.3051V43.7166C109.404 43.3734 109.304 43.1119 109.104 42.9321C108.904 42.7441 108.625 42.6501 108.267 42.6501H106.018V45.3716Z" fill="white"/>
<path d="M113.064 41.4365H114.438V46.3032L114.301 48.0685H114.338L115.212 46.4871L118.561 41.4365H119.835V49.9931H118.461V45.1264L118.599 43.3611H118.561L117.686 44.9425L114.338 49.9931H113.064V41.4365Z" fill="white"/>
<path d="M128.054 49.9931L127.267 47.6762H124.006L123.244 49.9931H121.807L124.78 41.4365H126.555L129.528 49.9931H128.054ZM125.668 42.7114H125.605L124.343 46.4871H126.917L125.668 42.7114Z" fill="white"/>
<path d="M130.665 48.7672H131.627C131.794 48.6038 131.94 48.4036 132.065 48.1666C132.19 47.9296 132.289 47.6272 132.365 47.2594C132.447 46.8917 132.51 46.4422 132.552 45.911C132.593 45.3716 132.615 44.7178 132.615 43.9496V41.4365H138.249V49.9931H136.837V42.6624H133.976V44.1089C133.976 44.9344 133.947 45.6454 133.889 46.2419C133.838 46.8304 133.764 47.333 133.663 47.7498C133.564 48.1666 133.439 48.5098 133.289 48.7795C133.147 49.0492 132.989 49.2699 132.814 49.4415C132.598 49.6458 132.365 49.797 132.115 49.8951C131.865 49.985 131.561 50.0299 131.202 50.0299H130.665V48.7672Z" fill="white"/>
<path d="M141.023 41.4365H142.434V44.7219H144.87C145.679 44.7219 146.303 44.9589 146.744 45.4329C147.186 45.8987 147.407 46.5403 147.407 47.3575C147.407 48.1748 147.186 48.8204 146.744 49.2944C146.303 49.7602 145.679 49.9931 144.87 49.9931H141.023V41.4365ZM144.783 48.7795C145.141 48.7795 145.42 48.6856 145.62 48.4975C145.82 48.3096 145.92 48.0277 145.92 47.6517V47.0633C145.92 46.6874 145.82 46.4054 145.62 46.2174C145.42 46.0295 145.141 45.9355 144.783 45.9355H142.434V48.7795H144.783ZM148.706 41.4365H150.117V49.9931H148.706V41.4365Z" fill="white"/>
</svg>
