<svg width="200" height="60" viewBox="0 0 200 60" fill="none" xmlns="http://www.w3.org/2000/svg">
<path fill-rule="evenodd" clip-rule="evenodd" d="M27.0844 45.4032L40.9074 37.5291V22.0503L27.0844 14.1761L13.2261 22.0517V37.5277L27.0844 45.4032ZM28.7686 49.3217C27.7302 49.9133 26.4433 49.9139 25.4043 49.3234L10.5336 40.8725C9.51533 40.2938 8.88965 39.2348 8.88965 38.0901V21.4892C8.88965 20.3444 9.51533 19.2855 10.5336 18.7068L25.4043 10.2558C26.4433 9.66543 27.7302 9.66606 28.7686 10.2575L43.6029 18.7077C44.6195 19.2869 45.2439 20.3449 45.2439 21.4885V38.0909C45.2439 39.2344 44.6195 40.2925 43.6029 40.8715L28.7686 49.3217Z" fill="#FF8400"/>
<path fill-rule="evenodd" clip-rule="evenodd" d="M27.0735 35.172L31.8729 32.4548V27.1249L27.0735 24.4077L22.2603 27.1264V32.4534L27.0735 35.172ZM28.7501 39.0931C27.7156 39.6789 26.4362 39.6795 25.4011 39.0948L19.5755 35.8043C18.5528 35.2267 17.9238 34.1654 17.9238 33.0176V26.5622C17.9238 25.4144 18.5528 24.3531 19.5755 23.7754L25.4011 20.4849C26.4362 19.9003 27.7156 19.9009 28.7501 20.4866L34.5607 23.7763C35.5817 24.3543 36.2094 25.4147 36.2094 26.5614V33.0183C36.2094 34.165 35.5817 35.2254 34.5607 35.8034L28.7501 39.0931Z" fill="#0095DA"/>
<path fill-rule="evenodd" clip-rule="evenodd" d="M27.1082 55.6367L8.18188 44.8399C7.14965 44.251 5.82075 44.5853 5.21368 45.5865C4.60661 46.5877 4.95126 47.8767 5.98346 48.4655L25.4234 59.5553C26.4648 60.1494 27.7565 60.1488 28.7973 59.5536L52.5696 45.9603C53.5835 45.3805 54.2058 44.324 54.2058 43.1823V25.4088C54.2058 24.2473 53.2351 23.3057 52.0376 23.3057C50.8401 23.3057 49.8693 24.2473 49.8693 25.4088V42.6216L27.1082 55.6367Z" fill="#0095DA"/>
<path fill-rule="evenodd" clip-rule="evenodd" d="M27.0976 4.36375L46.024 15.1606C47.0562 15.7494 48.3851 15.4151 48.9921 14.4139C49.5992 13.4127 49.2546 12.1237 48.2224 11.5349L28.7824 0.445103C27.741 -0.148972 26.4493 -0.148325 25.4086 0.446792L1.63625 14.0402C0.622319 14.6199 8.2712e-07 15.6765 8.2712e-07 16.8181L0 34.5916C0 35.7531 0.970759 36.6947 2.16824 36.6947C3.36573 36.6947 4.33649 35.7531 4.33649 34.5916V17.3789L27.0976 4.36375Z" fill="#0095DA"/>
<path d="M69.5137 11.5947H74.3992V12.8005H70.9184V20.0111H69.5137V11.5947Z" fill="white"/>
<path d="M76.4111 11.5947H77.7786V16.3817L77.642 18.118H77.6796L78.5497 16.5626L81.8809 11.5947H83.1493V20.0111H81.7819V15.2242L81.9185 13.4878H81.8809L81.0107 15.0433L77.6796 20.0111H76.4111V11.5947Z" fill="white"/>
<path d="M85.9072 11.5947H91.4514V12.8005H87.3115V14.8986H89.7356C90.54 14.8986 91.1616 15.1318 91.6003 15.5979C92.0397 16.0561 92.2595 16.6752 92.2595 17.4549C92.2595 18.2346 92.0397 18.8576 91.6003 19.3238C91.1616 19.782 90.54 20.0111 89.7356 20.0111H85.9072V11.5947ZM89.6489 18.8174C90.0052 18.8174 90.2827 18.725 90.4815 18.5401C90.681 18.3552 90.78 18.0779 90.78 17.7081V17.2016C90.78 16.8319 90.681 16.5546 90.4815 16.3697C90.2827 16.1848 90.0052 16.0923 89.6489 16.0923H87.3115V18.8174H89.6489Z" fill="white"/>
<path d="M94.542 20.0111V11.5947H98.2714C99.0751 11.5947 99.6966 11.8238 100.136 12.282C100.575 12.7402 100.794 13.3552 100.794 14.1269C100.794 14.8986 100.575 15.5135 100.136 15.9717C99.6966 16.4299 99.0751 16.659 98.2714 16.659H95.9463V20.0111H94.542ZM95.9463 15.4653H98.1839C98.5402 15.4653 98.8185 15.3769 99.0173 15.2C99.216 15.0152 99.3157 14.7539 99.3157 14.4163V13.8375C99.3157 13.4999 99.216 13.2427 99.0173 13.0658C98.8185 12.8809 98.5402 12.7885 98.1839 12.7885H95.9463V15.4653Z" fill="white"/>
<path d="M102.956 11.5947H104.323V16.3817L104.187 18.118H104.224L105.095 16.5626L108.426 11.5947H109.694V20.0111H108.327V15.2242L108.463 13.4878H108.426L107.556 15.0433L104.224 20.0111H102.956V11.5947Z" fill="white"/>
<path d="M111.545 18.8053H112.465C112.63 18.6044 112.78 18.3673 112.912 18.0939C113.053 17.8126 113.17 17.487 113.261 17.1172C113.36 16.7395 113.435 16.3094 113.484 15.827C113.534 15.3367 113.559 14.778 113.559 14.151V11.5947H119.215V18.8053H120.508V21.8198H119.202V20.0111H112.85V21.8198H111.545V18.8053ZM117.81 18.8053V12.8005H114.914V14.3078C114.914 14.9106 114.893 15.4453 114.851 15.9115C114.819 16.3777 114.765 16.7917 114.69 17.1534C114.624 17.5072 114.537 17.8166 114.429 18.0819C114.33 18.3392 114.214 18.5642 114.081 18.7571V18.8053H117.81Z" fill="white"/>
<path d="M127.9 16.3455H123.971V20.0111H122.566V11.5947H123.971V15.1397H127.9V11.5947H129.304V20.0111H127.9V16.3455Z" fill="white"/>
<path d="M132.064 11.5947H133.469V14.8262H135.893C136.697 14.8262 137.318 15.0594 137.758 15.5256C138.197 15.9838 138.417 16.6149 138.417 17.4187C138.417 18.2226 138.197 18.8576 137.758 19.3238C137.318 19.782 136.697 20.0111 135.893 20.0111H132.064V11.5947ZM135.806 18.8174C136.162 18.8174 136.44 18.725 136.639 18.5401C136.837 18.3552 136.937 18.0779 136.937 17.7081V17.1293C136.937 16.7596 136.837 16.4822 136.639 16.2973C136.44 16.1124 136.162 16.02 135.806 16.02H133.469V18.8174H135.806ZM139.71 11.5947H141.114V20.0111H139.71V11.5947Z" fill="white"/>
<path d="M143.877 20.0111V11.5947H149.434V12.8005H145.282V15.1397H149.048V16.3455H145.282V18.8053H149.434V20.0111H143.877Z" fill="white"/>
<path d="M74.8466 30.9266H70.9184V34.5922H69.5137V26.1758H70.9184V29.7208H74.8466V26.1758H76.2516V34.5922H74.8466V30.9266Z" fill="white"/>
<path d="M84.4295 34.5922L83.646 32.3133H80.4016L79.6435 34.5922H78.2139L81.1728 26.1758H82.9377L85.8967 34.5922H84.4295ZM82.0553 27.4298H81.9931L80.7377 31.1436H83.2984L82.0553 27.4298Z" fill="white"/>
<path d="M93.1945 30.9266H89.2663V34.5922H87.8613V26.1758H89.2663V29.7208H93.1945V26.1758H94.5988V34.5922H93.1945V30.9266Z" fill="white"/>
<path d="M100.714 34.7361C100.15 34.7361 99.6365 34.6437 99.1725 34.4587C98.7164 34.2658 98.3225 33.9885 97.9915 33.6267C97.6684 33.257 97.4154 32.8028 97.2333 32.2642C97.0591 31.7176 96.9717 31.0906 96.9717 30.3832C96.9717 29.6758 97.0591 29.0528 97.2333 28.5142C97.4154 27.9676 97.6684 27.5134 97.9915 27.1517C98.3225 26.7819 98.7164 26.5046 99.1725 26.3197C99.6365 26.1267 100.15 26.0303 100.714 26.0303C101.277 26.0303 101.787 26.1267 102.243 26.3197C102.707 26.5046 103.101 26.7819 103.424 27.1517C103.755 27.5134 104.008 27.9676 104.182 28.5142C104.365 29.0528 104.456 29.6758 104.456 30.3832C104.456 31.0906 104.365 31.7176 104.182 32.2642C104.008 32.8028 103.755 33.257 103.424 33.6267C103.101 33.9885 102.707 34.2658 102.243 34.4587C101.787 34.6437 101.277 34.7361 100.714 34.7361ZM100.714 33.5182C101.045 33.5182 101.348 33.462 101.621 33.3494C101.903 33.2369 102.139 33.0762 102.33 32.8671C102.529 32.6501 102.682 32.3889 102.79 32.0833C102.897 31.7779 102.952 31.4322 102.952 31.0464V29.72C102.952 29.3341 102.897 28.9885 102.79 28.683C102.682 28.3776 102.529 28.1204 102.33 27.9113C102.139 27.6943 101.903 27.5295 101.621 27.4169C101.348 27.3044 101.045 27.2481 100.714 27.2481C100.374 27.2481 100.067 27.3044 99.794 27.4169C99.5201 27.5295 99.2845 27.6943 99.085 27.9113C98.8949 28.1204 98.7453 28.3776 98.6376 28.683C98.5299 28.9885 98.4764 29.3341 98.4764 29.72V31.0464C98.4764 31.4322 98.5299 31.7779 98.6376 32.0833C98.7453 32.3889 98.8949 32.6501 99.085 32.8671C99.2845 33.0762 99.5201 33.2369 99.794 33.3494C100.067 33.462 100.374 33.5182 100.714 33.5182Z" fill="white"/>
<path d="M110.086 34.7361C108.951 34.7361 108.059 34.3663 107.413 33.6267C106.767 32.8792 106.443 31.798 106.443 30.3832C106.443 29.6758 106.526 29.0528 106.692 28.5142C106.858 27.9757 107.098 27.5215 107.413 27.1517C107.728 26.7819 108.109 26.5046 108.557 26.3197C109.013 26.1267 109.522 26.0303 110.086 26.0303C110.84 26.0303 111.47 26.1911 111.975 26.5126C112.489 26.8342 112.891 27.3084 113.182 27.9354L112.001 28.5624C111.851 28.1605 111.619 27.843 111.305 27.6099C110.997 27.3687 110.591 27.2481 110.086 27.2481C109.415 27.2481 108.888 27.4692 108.508 27.9113C108.126 28.3535 107.935 28.9644 107.935 29.7441V31.0222C107.935 31.802 108.126 32.413 108.508 32.855C108.888 33.2972 109.415 33.5182 110.086 33.5182C110.608 33.5182 111.031 33.3897 111.354 33.1324C111.685 32.8671 111.93 32.5295 112.087 32.1195L113.218 32.7827C112.929 33.3937 112.522 33.872 112.001 34.2176C111.478 34.5633 110.84 34.7361 110.086 34.7361Z" fill="white"/>
<path d="M118.512 27.3816V34.5922H117.107V27.3816H114.521V26.1758H121.098V27.3816H118.512Z" fill="white"/>
<path d="M123.09 34.5922V26.1758H126.819C127.624 26.1758 128.245 26.4049 128.684 26.8631C129.123 27.3213 129.343 27.9362 129.343 28.7079C129.343 29.4796 129.123 30.0946 128.684 30.5528C128.245 31.011 127.624 31.2401 126.819 31.2401H124.495V34.5922H123.09ZM124.495 30.0464H126.732C127.089 30.0464 127.366 29.958 127.565 29.7811C127.764 29.5962 127.864 29.3349 127.864 28.9973V28.4186C127.864 28.0809 127.764 27.8237 127.565 27.6468C127.366 27.462 127.089 27.3695 126.732 27.3695H124.495V30.0464Z" fill="white"/>
<path d="M132.04 33.3864H133.407L133.73 32.6147L130.598 26.1758H132.089L133.68 29.4917L134.364 31.0472H134.414L134.998 29.4676L136.353 26.1758H137.758L134.712 33.4708C134.621 33.6879 134.526 33.8687 134.426 34.0134C134.327 34.1581 134.211 34.2747 134.078 34.3631C133.945 34.4435 133.789 34.5038 133.606 34.544C133.432 34.5761 133.221 34.5922 132.972 34.5922H132.04V33.3864Z" fill="white"/>
<path d="M139.666 26.1758H141.07V29.7208H142.575L144.116 27.0922C144.307 26.7626 144.506 26.5295 144.713 26.3928C144.928 26.2481 145.189 26.1758 145.496 26.1758H146.155V27.3816H145.372L144.129 29.5038C143.988 29.7369 143.855 29.9057 143.731 30.0102C143.615 30.1147 143.47 30.1951 143.296 30.2513V30.3116C143.494 30.3519 143.664 30.4202 143.805 30.5166C143.946 30.6131 144.091 30.79 144.24 31.0472L145.621 33.3864H146.379V34.5922H145.521C145.248 34.5922 145.011 34.5279 144.813 34.3993C144.613 34.2626 144.414 34.0255 144.216 33.6879L142.575 30.9145H141.07V34.5922H139.666V26.1758Z" fill="white"/>
<path d="M151.81 27.3816V34.5922H150.405V27.3816H147.819V26.1758H154.396V27.3816H151.81Z" fill="white"/>
<path d="M157.092 33.3864H158.46L158.783 32.6147L155.65 26.1758H157.142L158.733 29.4917L159.417 31.0472H159.466L160.051 29.4676L161.406 26.1758H162.811L159.765 33.4708C159.674 33.6879 159.579 33.8687 159.48 34.0134C159.38 34.1581 159.263 34.2747 159.131 34.3631C158.998 34.4435 158.841 34.5038 158.658 34.544C158.485 34.5761 158.273 34.5922 158.025 34.5922H157.092V33.3864Z" fill="white"/>
<path d="M164.717 34.5922V26.1758H168.446C169.25 26.1758 169.871 26.4049 170.311 26.8631C170.75 27.3213 170.969 27.9362 170.969 28.7079C170.969 29.4796 170.75 30.0946 170.311 30.5528C169.871 31.011 169.25 31.2401 168.446 31.2401H166.121V34.5922H164.717ZM166.121 30.0464H168.359C168.715 30.0464 168.993 29.958 169.192 29.7811C169.391 29.5962 169.491 29.3349 169.491 28.9973V28.4186C169.491 28.0809 169.391 27.8237 169.192 27.6468C168.993 27.462 168.715 27.3695 168.359 27.3695H166.121V30.0464Z" fill="white"/>
<path d="M178.465 30.9266H174.537V34.5922H173.132V26.1758H174.537V29.7208H178.465V26.1758H179.87V34.5922H178.465V30.9266Z" fill="white"/>
<path d="M182.628 26.1758H184.032V29.4073H186.456C187.261 29.4073 187.882 29.6405 188.321 30.1067C188.76 30.5649 188.98 31.1959 188.98 31.9997C188.98 32.8036 188.76 33.4387 188.321 33.9049C187.882 34.3631 187.261 34.5922 186.456 34.5922H182.628V26.1758ZM186.37 33.3985C186.726 33.3985 187.003 33.3061 187.202 33.1211C187.402 32.9363 187.501 32.6589 187.501 32.2891V31.7104C187.501 31.3406 187.402 31.0633 187.202 30.8784C187.003 30.6935 186.726 30.601 186.37 30.601H184.032V33.3985H186.37ZM190.273 26.1758H191.677V34.5922H190.273V26.1758Z" fill="white"/>
<path d="M194.443 34.5922V26.1758H200V27.3816H195.848V29.7208H199.615V30.9266H195.848V33.3864H200V34.5922H194.443Z" fill="white"/>
<path d="M76.1519 42.7353H76.0897L75.406 44.0979L73.5037 47.462L71.6021 44.0979L70.9184 42.7353H70.8562V49.1742H69.5137V40.7578H71.1795L73.5037 45.0384H73.5789L75.9033 40.7578H77.4948V49.1742H76.1519V42.7353Z" fill="white"/>
<path d="M85.6795 49.1742L84.896 46.8953H81.6516L80.8935 49.1742H79.4639L82.4228 40.7578H84.1877L87.1467 49.1742H85.6795ZM83.3053 42.0118H83.2431L81.9877 45.7257H84.5484L83.3053 42.0118Z" fill="white"/>
<path d="M91.5184 41.9636V49.1742H90.1133V41.9636H87.5273V40.7578H94.1036V41.9636H91.5184Z" fill="white"/>
<path d="M96.0957 49.1742V40.7578H101.652V41.9636H97.5V44.3028H101.267V45.5086H97.5V47.9684H101.652V49.1742H96.0957Z" fill="white"/>
<path d="M104.086 49.1742V40.7578H107.815C108.62 40.7578 109.241 40.9869 109.68 41.4451C110.119 41.9033 110.339 42.5183 110.339 43.29C110.339 44.0617 110.119 44.6766 109.68 45.1348C109.241 45.593 108.62 45.8221 107.815 45.8221H105.491V49.1742H104.086ZM105.491 44.6284H107.729C108.085 44.6284 108.362 44.54 108.561 44.3631C108.761 44.1783 108.86 43.917 108.86 43.5794V43.0006C108.86 42.663 108.761 42.4057 108.561 42.2289C108.362 42.044 108.085 41.9515 107.729 41.9515H105.491V44.6284Z" fill="white"/>
<path d="M112.501 40.7578H113.868V45.5448L113.732 47.2811H113.769L114.639 45.7257L117.971 40.7578H119.238V49.1742H117.871V44.3872L118.008 42.6509H117.971L117.101 44.2064L113.769 49.1742H112.501V40.7578Z" fill="white"/>
<path d="M127.417 49.1742L126.633 46.8953H123.389L122.631 49.1742H121.201L124.159 40.7578H125.925L128.883 49.1742H127.417ZM125.043 42.0118H124.98L123.724 45.7257H126.286L125.043 42.0118Z" fill="white"/>
<path d="M130.015 47.9684H130.972C131.138 47.8077 131.283 47.6108 131.407 47.3776C131.532 47.1445 131.631 46.8471 131.706 46.4853C131.788 46.1236 131.85 45.6815 131.892 45.1589C131.934 44.6284 131.955 43.9853 131.955 43.2297V40.7578H137.561V49.1742H136.156V41.9636H133.309V43.3864C133.309 44.1984 133.28 44.8977 133.222 45.4845C133.172 46.0633 133.098 46.5577 132.998 46.9676C132.899 47.3776 132.775 47.7152 132.625 47.9805C132.484 48.2458 132.327 48.4629 132.153 48.6317C131.938 48.8326 131.706 48.9814 131.457 49.0778C131.209 49.1662 130.906 49.2104 130.549 49.2104H130.015V47.9684Z" fill="white"/>
<path d="M140.32 40.7578H141.725V43.9893H144.149C144.953 43.9893 145.575 44.2225 146.013 44.6887C146.453 45.1469 146.673 45.778 146.673 46.5818C146.673 47.3857 146.453 48.0207 146.013 48.4869C145.575 48.9451 144.953 49.1742 144.149 49.1742H140.32V40.7578ZM144.062 47.9805C144.418 47.9805 144.696 47.8881 144.895 47.7032C145.094 47.5183 145.193 47.241 145.193 46.8712V46.2924C145.193 45.9227 145.094 45.6453 144.895 45.4604C144.696 45.2755 144.418 45.1831 144.062 45.1831H141.725V47.9805H144.062ZM147.966 40.7578H149.37V49.1742H147.966V40.7578Z" fill="white"/>
</svg>
