<svg width="162" height="49" viewBox="0 0 162 49" fill="none" xmlns="http://www.w3.org/2000/svg">
<path fill-rule="evenodd" clip-rule="evenodd" d="M21.9389 37.0798L33.1356 30.6492V18.0081L21.9389 11.5775L10.7137 18.0093V30.648L21.9389 37.0798ZM23.3032 40.2799C22.4621 40.763 21.4197 40.7636 20.5781 40.2813L8.53278 33.3796C7.70798 32.9071 7.20117 32.0422 7.20117 31.1074V17.5499C7.20117 16.615 7.70798 15.7502 8.53278 15.2776L20.5781 8.37592C21.4197 7.89374 22.4621 7.89425 23.3032 8.37729L35.3189 15.2783C36.1424 15.7513 36.6481 16.6153 36.6481 17.5493V31.108C36.6481 32.0419 36.1424 32.906 35.3189 33.3789L23.3032 40.2799Z" fill="#FF8400"/>
<path fill-rule="evenodd" clip-rule="evenodd" d="M21.9298 28.7244L25.8173 26.5053V22.1525L21.9298 19.9334L18.0311 22.1537V26.5041L21.9298 28.7244ZM23.2878 31.9266C22.4499 32.405 21.4136 32.4055 20.5751 31.928L15.8564 29.2407C15.0281 28.769 14.5186 27.9023 14.5186 26.9649V21.6929C14.5186 20.7556 15.0281 19.8888 15.8564 19.4171L20.5751 16.7298C21.4136 16.2523 22.4499 16.2529 23.2878 16.7311L27.9944 19.4178C28.8214 19.8898 29.3299 20.7558 29.3299 21.6923V26.9655C29.3299 27.9019 28.8214 28.7679 27.9944 29.24L23.2878 31.9266Z" fill="#0095DA"/>
<path fill-rule="evenodd" clip-rule="evenodd" d="M21.9577 45.437L6.62741 36.6196C5.79129 36.1387 4.71489 36.4117 4.22316 37.2293C3.73143 38.047 4.0106 39.0997 4.84668 39.5806L20.5931 48.6373C21.4366 49.1225 22.4829 49.1219 23.3259 48.6359L42.5815 37.5346C43.4028 37.0611 43.9069 36.1983 43.9069 35.2659V20.7508C43.9069 19.8022 43.1206 19.0332 42.1506 19.0332C41.1806 19.0332 40.3943 19.8022 40.3943 20.7508V34.808L21.9577 45.437Z" fill="#0095DA"/>
<path fill-rule="evenodd" clip-rule="evenodd" d="M21.9491 3.56375L37.2795 12.3812C38.1156 12.8621 39.192 12.5891 39.6837 11.7714C40.1754 10.9538 39.8963 9.90111 39.0602 9.42025L23.3138 0.363503C22.4703 -0.121661 21.424 -0.121133 20.581 0.364883L1.32537 11.4662C0.504079 11.9397 6.69968e-07 12.8025 6.69968e-07 13.7349L0 28.25C0 29.1986 0.786316 29.9675 1.75628 29.9675C2.72625 29.9675 3.51256 29.1986 3.51256 28.25V14.1928L21.9491 3.56375Z" fill="#0095DA"/>
<path d="M56.3057 9.46875H60.263V10.4535H57.4435V16.3422H56.3057V9.46875Z" fill="black"/>
<path d="M61.8926 9.46875H63.0002V13.3781L62.8896 14.7962H62.92L63.6249 13.5259L66.3231 9.46875H67.3505V16.3422H66.2429V12.4328L66.3535 11.0148H66.3231L65.6182 12.2851L62.92 16.3422H61.8926V9.46875Z" fill="black"/>
<path d="M69.585 9.46875H74.0758V10.4535H70.7224V12.1669H72.686C73.3375 12.1669 73.841 12.3573 74.1964 12.7381C74.5523 13.1123 74.7303 13.6178 74.7303 14.2546C74.7303 14.8914 74.5523 15.4002 74.1964 15.7809C73.841 16.1551 73.3375 16.3422 72.686 16.3422H69.585V9.46875ZM72.6157 15.3673C72.9043 15.3673 73.1291 15.2919 73.2901 15.1408C73.4517 14.9898 73.5319 14.7634 73.5319 14.4614V14.0478C73.5319 13.7458 73.4517 13.5193 73.2901 13.3683C73.1291 13.2173 72.9043 13.1418 72.6157 13.1418H70.7224V15.3673H72.6157Z" fill="black"/>
<path d="M76.5781 16.3422V9.46875H79.5989C80.2499 9.46875 80.7534 9.65585 81.1093 10.03C81.4647 10.4042 81.6427 10.9065 81.6427 11.5367C81.6427 12.1669 81.4647 12.6691 81.1093 13.0433C80.7534 13.4175 80.2499 13.6046 79.5989 13.6046H77.7156V16.3422H76.5781ZM77.7156 12.6297H79.5281C79.8167 12.6297 80.0421 12.5576 80.2031 12.4131C80.3641 12.2621 80.4449 12.0488 80.4449 11.773V11.3004C80.4449 11.0246 80.3641 10.8146 80.2031 10.6701C80.0421 10.5192 79.8167 10.4436 79.5281 10.4436H77.7156V12.6297Z" fill="black"/>
<path d="M83.3945 9.46875H84.5022V13.3781L84.3915 14.7962H84.422L85.1268 13.5259L87.825 9.46875H88.8525V16.3422H87.7448V12.4328L87.8555 11.0148H87.825L87.1202 12.2851L84.422 16.3422H83.3945V9.46875Z" fill="black"/>
<path d="M90.3516 15.3575H91.0968C91.2309 15.1934 91.3521 14.9997 91.4592 14.7765C91.5734 14.5467 91.6676 14.2808 91.7414 13.9788C91.8216 13.6703 91.8825 13.3191 91.9223 12.9252C91.9627 12.5247 91.9831 12.0684 91.9831 11.5564V9.46875H96.5647V15.3575H97.6114V17.8193H96.5542V16.3422H91.4088V17.8193H90.3516V15.3575ZM95.4266 15.3575V10.4535H93.0802V11.6844C93.0802 12.1768 93.0638 12.6134 93.0299 12.9941C93.0035 13.3749 92.9596 13.713 92.8993 14.0084C92.8455 14.2973 92.7752 14.55 92.688 14.7666C92.6072 14.9767 92.5135 15.1605 92.4058 15.3181V15.3575H95.4266Z" fill="black"/>
<path d="M103.6 13.3486H100.418V16.3422H99.2803V9.46875H100.418V12.3639H103.6V9.46875H104.738V16.3422H103.6V13.3486Z" fill="black"/>
<path d="M106.972 9.46875H108.109V12.1078H110.073C110.724 12.1078 111.227 12.2983 111.583 12.679C111.939 13.0532 112.117 13.5686 112.117 14.225C112.117 14.8815 111.939 15.4002 111.583 15.7809C111.227 16.1551 110.724 16.3422 110.073 16.3422H106.972V9.46875ZM110.002 15.3673C110.291 15.3673 110.516 15.2919 110.677 15.1408C110.838 14.9898 110.919 14.7634 110.919 14.4614V13.9887C110.919 13.6867 110.838 13.4602 110.677 13.3092C110.516 13.1582 110.291 13.0827 110.002 13.0827H108.109V15.3673H110.002ZM113.164 9.46875H114.302V16.3422H113.164V9.46875Z" fill="black"/>
<path d="M116.541 16.3422V9.46875H121.042V10.4535H117.679V12.3639H120.73V13.3486H117.679V15.3575H121.042V16.3422H116.541Z" fill="black"/>
<path d="M60.6253 25.2568H57.4435V28.2504H56.3057V21.377H57.4435V24.2721H60.6253V21.377H61.7634V28.2504H60.6253V25.2568Z" fill="black"/>
<path d="M68.3872 28.2504L67.7526 26.3893H65.1246L64.5105 28.2504H63.3525L65.7493 21.377H67.1789L69.5756 28.2504H68.3872ZM66.4641 22.4011H66.4137L65.3968 25.4341H67.471L66.4641 22.4011Z" fill="black"/>
<path d="M75.4878 25.2568H72.306V28.2504H71.168V21.377H72.306V24.2721H75.4878V21.377H76.6253V28.2504H75.4878V25.2568Z" fill="black"/>
<path d="M81.5782 28.3676C81.1216 28.3676 80.7053 28.2921 80.3295 28.1411C79.9601 27.9836 79.641 27.7571 79.3729 27.4616C79.1112 27.1597 78.9063 26.7888 78.7588 26.3489C78.6177 25.9025 78.5469 25.3904 78.5469 24.8127C78.5469 24.235 78.6177 23.7262 78.7588 23.2864C78.9063 22.84 79.1112 22.469 79.3729 22.1736C79.641 21.8717 79.9601 21.6452 80.3295 21.4941C80.7053 21.3366 81.1216 21.2578 81.5782 21.2578C82.0343 21.2578 82.4476 21.3366 82.8164 21.4941C83.1922 21.6452 83.5113 21.8717 83.773 22.1736C84.0417 22.469 84.2466 22.84 84.3871 23.2864C84.5352 23.7262 84.609 24.235 84.609 24.8127C84.609 25.3904 84.5352 25.9025 84.3871 26.3489C84.2466 26.7888 84.0417 27.1597 83.773 27.4616C83.5113 27.7571 83.1922 27.9836 82.8164 28.1411C82.4476 28.2921 82.0343 28.3676 81.5782 28.3676ZM81.5782 27.373C81.8463 27.373 82.0916 27.3271 82.3129 27.2352C82.5412 27.1433 82.7327 27.012 82.8872 26.8413C83.0482 26.664 83.1723 26.4507 83.2596 26.2012C83.3468 25.9517 83.3907 25.6694 83.3907 25.3543V24.2711C83.3907 23.956 83.3468 23.6737 83.2596 23.4242C83.1723 23.1748 83.0482 22.9647 82.8872 22.794C82.7327 22.6167 82.5412 22.4822 82.3129 22.3903C82.0916 22.2984 81.8463 22.2524 81.5782 22.2524C81.3025 22.2524 81.0543 22.2984 80.833 22.3903C80.6111 22.4822 80.4202 22.6167 80.2587 22.794C80.1047 22.9647 79.9835 23.1748 79.8963 23.4242C79.8091 23.6737 79.7657 23.956 79.7657 24.2711V25.3543C79.7657 25.6694 79.8091 25.9517 79.8963 26.2012C79.9835 26.4507 80.1047 26.664 80.2587 26.8413C80.4202 27.012 80.6111 27.1433 80.833 27.2352C81.0543 27.3271 81.3025 27.373 81.5782 27.373Z" fill="black"/>
<path d="M89.1703 28.3676C88.2506 28.3676 87.5287 28.0656 87.0054 27.4616C86.482 26.8511 86.2197 25.9682 86.2197 24.8127C86.2197 24.235 86.287 23.7262 86.4211 23.2864C86.5558 22.8466 86.7501 22.4756 87.0054 22.1736C87.2606 21.8717 87.5691 21.6452 87.9315 21.4941C88.3009 21.3366 88.7136 21.2578 89.1703 21.2578C89.7809 21.2578 90.2914 21.3891 90.7006 21.6517C91.1168 21.9143 91.4423 22.3016 91.6777 22.8137L90.7211 23.3258C90.5999 22.9975 90.412 22.7382 90.1573 22.5478C89.9085 22.3509 89.5795 22.2524 89.1703 22.2524C88.6264 22.2524 88.2002 22.433 87.8917 22.794C87.5826 23.1551 87.428 23.654 87.428 24.2908V25.3346C87.428 25.9714 87.5826 26.4704 87.8917 26.8314C88.2002 27.1925 88.6264 27.373 89.1703 27.373C89.593 27.373 89.9354 27.268 90.1971 27.0579C90.4658 26.8413 90.6637 26.5655 90.7913 26.2307L91.7075 26.7723C91.4728 27.2713 91.1438 27.6619 90.7211 27.9442C90.2978 28.2265 89.7809 28.3676 89.1703 28.3676Z" fill="black"/>
<path d="M95.9948 22.3617V28.2504H94.8573V22.3617H92.7627V21.377H98.0895V22.3617H95.9948Z" fill="black"/>
<path d="M99.7021 28.2504V21.377H102.723C103.375 21.377 103.878 21.5641 104.233 21.9383C104.589 22.3125 104.767 22.8147 104.767 23.4449C104.767 24.0751 104.589 24.5773 104.233 24.9515C103.878 25.3257 103.375 25.5128 102.723 25.5128H100.84V28.2504H99.7021ZM100.84 24.538H102.653C102.941 24.538 103.166 24.4658 103.327 24.3213C103.488 24.1703 103.569 23.957 103.569 23.6812V23.2086C103.569 22.9328 103.488 22.7228 103.327 22.5783C103.166 22.4274 102.941 22.3518 102.653 22.3518H100.84V24.538Z" fill="black"/>
<path d="M106.953 27.2657H108.061L108.322 26.6354L105.785 21.377H106.993L108.282 24.085L108.836 25.3553H108.876L109.35 24.0653L110.447 21.377H111.585L109.118 27.3346C109.044 27.5119 108.967 27.6596 108.886 27.7777C108.806 27.8959 108.712 27.9911 108.605 28.0633C108.497 28.129 108.37 28.1782 108.222 28.211C108.081 28.2373 107.91 28.2504 107.708 28.2504H106.953V27.2657Z" fill="black"/>
<path d="M113.129 21.377H114.266V24.2721H115.485L116.733 22.1254C116.888 21.8562 117.049 21.6658 117.217 21.5542C117.391 21.436 117.603 21.377 117.852 21.377H118.385V22.3617H117.751L116.744 24.0948C116.63 24.2852 116.522 24.4231 116.421 24.5084C116.328 24.5938 116.21 24.6594 116.069 24.7054V24.7546C116.23 24.7875 116.367 24.8432 116.482 24.922C116.596 25.0008 116.713 25.1452 116.834 25.3553L117.952 27.2657H118.566V28.2504H117.871C117.65 28.2504 117.459 28.1979 117.298 28.0928C117.136 27.9813 116.975 27.7876 116.814 27.5119L115.485 25.247H114.266V28.2504H113.129V21.377Z" fill="black"/>
<path d="M122.967 22.3617V28.2504H121.829V22.3617H119.734V21.377H125.061V22.3617H122.967Z" fill="black"/>
<path d="M127.245 27.2657H128.353L128.614 26.6354L126.077 21.377H127.285L128.574 24.085L129.128 25.3553H129.168L129.642 24.0653L130.739 21.377H131.877L129.41 27.3346C129.336 27.5119 129.259 27.6596 129.179 27.7777C129.098 27.8959 129.004 27.9911 128.897 28.0633C128.789 28.129 128.662 28.1782 128.514 28.211C128.373 28.2373 128.202 28.2504 128 28.2504H127.245V27.2657Z" fill="black"/>
<path d="M133.421 28.2504V21.377H136.442C137.093 21.377 137.596 21.5641 137.952 21.9383C138.307 22.3125 138.485 22.8147 138.485 23.4449C138.485 24.0751 138.307 24.5773 137.952 24.9515C137.596 25.3257 137.093 25.5128 136.442 25.5128H134.558V28.2504H133.421ZM134.558 24.538H136.371C136.659 24.538 136.885 24.4658 137.046 24.3213C137.207 24.1703 137.288 23.957 137.288 23.6812V23.2086C137.288 22.9328 137.207 22.7228 137.046 22.5783C136.885 22.4274 136.659 22.3518 136.371 22.3518H134.558V24.538Z" fill="black"/>
<path d="M144.556 25.2568H141.374V28.2504H140.236V21.377H141.374V24.2721H144.556V21.377H145.694V28.2504H144.556V25.2568Z" fill="black"/>
<path d="M147.929 21.377H149.066V24.016H151.03C151.681 24.016 152.185 24.2065 152.54 24.5872C152.896 24.9614 153.074 25.4768 153.074 26.1332C153.074 26.7897 152.896 27.3084 152.54 27.6891C152.185 28.0633 151.681 28.2504 151.03 28.2504H147.929V21.377ZM150.959 27.2755C151.248 27.2755 151.473 27.2001 151.634 27.049C151.795 26.8981 151.876 26.6716 151.876 26.3696V25.8969C151.876 25.5949 151.795 25.3684 151.634 25.2174C151.473 25.0664 151.248 24.9909 150.959 24.9909H149.066V27.2755H150.959ZM154.121 21.377H155.259V28.2504H154.121V21.377Z" fill="black"/>
<path d="M157.5 28.2504V21.377H162.001V22.3617H158.637V24.2721H161.689V25.2568H158.637V27.2657H162.001V28.2504H157.5Z" fill="black"/>
<path d="M61.6826 34.9001H61.6323L61.0785 36.0129L59.5376 38.7603L57.9973 36.0129L57.4435 34.9001H57.3932V40.1586H56.3057V33.2852H57.655L59.5376 36.781H59.5985L61.4812 33.2852H62.7704V40.1586H61.6826V34.9001Z" fill="black"/>
<path d="M69.4009 40.1586L68.7663 38.2975H66.1383L65.5242 40.1586H64.3662L66.763 33.2852H68.1926L70.5893 40.1586H69.4009ZM67.4778 34.3093H67.4274L66.4105 37.3423H68.4847L67.4778 34.3093Z" fill="black"/>
<path d="M74.1302 34.2699V40.1586H72.9921V34.2699H70.8975V33.2852H76.2243V34.2699H74.1302Z" fill="black"/>
<path d="M77.8379 40.1586V33.2852H82.3387V34.2699H78.9754V36.1803H82.0266V37.165H78.9754V39.1739H82.3387V40.1586H77.8379Z" fill="black"/>
<path d="M84.3096 40.1586V33.2852H87.3304C87.982 33.2852 88.4854 33.4723 88.8408 33.8465C89.1967 34.2207 89.3747 34.7229 89.3747 35.3531C89.3747 35.9833 89.1967 36.4855 88.8408 36.8597C88.4854 37.2339 87.982 37.421 87.3304 37.421H85.4476V40.1586H84.3096ZM85.4476 36.4462H87.2601C87.5487 36.4462 87.7735 36.374 87.9345 36.2295C88.0961 36.0785 88.1763 35.8652 88.1763 35.5894V35.1168C88.1763 34.841 88.0961 34.631 87.9345 34.4865C87.7735 34.3356 87.5487 34.26 87.2601 34.26H85.4476V36.4462Z" fill="black"/>
<path d="M91.126 33.2852H92.2336V37.1946L92.123 38.6126H92.1528L92.8577 37.3423L95.5565 33.2852H96.5833V40.1586H95.4757V36.2492L95.5869 34.8312H95.5565L94.8516 36.1015L92.1528 40.1586H91.126V33.2852Z" fill="black"/>
<path d="M103.209 40.1586L102.574 38.2975H99.9459L99.3318 40.1586H98.1738L100.57 33.2852H102L104.396 40.1586H103.209ZM101.285 34.3093H101.235L100.218 37.3423H102.292L101.285 34.3093Z" fill="black"/>
<path d="M105.312 39.1739H106.088C106.222 39.0426 106.34 38.8818 106.441 38.6914C106.541 38.501 106.622 38.2581 106.682 37.9626C106.749 37.6672 106.799 37.3062 106.833 36.8794C106.867 36.4462 106.884 35.921 106.884 35.3039V33.2852H111.425V40.1586H110.287V34.2699H107.981V35.4319C107.981 36.095 107.957 36.6661 107.911 37.1453C107.87 37.618 107.81 38.0217 107.729 38.3565C107.649 38.6914 107.548 38.9671 107.427 39.1837C107.313 39.4004 107.186 39.5777 107.045 39.7155C106.87 39.8796 106.682 40.0011 106.481 40.0799C106.28 40.1521 106.034 40.1881 105.746 40.1881H105.312V39.1739Z" fill="black"/>
<path d="M113.66 33.2852H114.798V35.9242H116.761C117.413 35.9242 117.916 36.1147 118.272 36.4954C118.628 36.8696 118.805 37.385 118.805 38.0414C118.805 38.6979 118.628 39.2166 118.272 39.5973C117.916 39.9715 117.413 40.1586 116.761 40.1586H113.66V33.2852ZM116.691 39.1837C116.98 39.1837 117.204 39.1083 117.365 38.9572C117.527 38.8063 117.607 38.5798 117.607 38.2778V37.8051C117.607 37.5031 117.527 37.2767 117.365 37.1256C117.204 36.9746 116.98 36.8991 116.691 36.8991H114.798V39.1837H116.691ZM119.853 33.2852H120.99V40.1586H119.853V33.2852Z" fill="black"/>
</svg>
