<svg width="162" height="48" viewBox="0 0 162 48" fill="none" xmlns="http://www.w3.org/2000/svg">
<path fill-rule="evenodd" clip-rule="evenodd" d="M21.9386 36.3235L33.1352 30.0242V17.6411L21.9386 11.3417L10.7134 17.6422V30.0231L21.9386 36.3235ZM23.3028 39.4584C22.4617 39.9316 21.4193 39.9321 20.5777 39.4597L8.53242 32.6989C7.70761 32.236 7.20081 31.3888 7.20081 30.473V17.1922C7.20081 16.2764 7.70761 15.4293 8.53242 14.9663L20.5777 8.20546C21.4193 7.73312 22.4617 7.73363 23.3028 8.2068L35.3186 14.967C36.142 15.4303 36.6478 16.2767 36.6478 17.1916V30.4736C36.6478 31.3885 36.142 32.2349 35.3186 32.6982L23.3028 39.4584Z" fill="#FF8400"/>
<path fill-rule="evenodd" clip-rule="evenodd" d="M21.9296 28.1383L25.8171 25.9645V21.7006L21.9296 19.5268L18.0309 21.7017V25.9634L21.9296 28.1383ZM23.2877 31.2752C22.4497 31.7438 21.4134 31.7443 20.575 31.2766L15.8562 28.6441C15.0279 28.182 14.5184 27.333 14.5184 26.4147V21.2504C14.5184 20.3321 15.0279 19.4831 15.8562 19.0209L20.575 16.3885C21.4134 15.9208 22.4497 15.9213 23.2877 16.3898L27.9943 19.0217C28.8212 19.4841 29.3297 20.3324 29.3297 21.2498V26.4153C29.3297 27.3326 28.8212 28.181 27.9943 28.6434L23.2877 31.2752Z" fill="#0095DA"/>
<path fill-rule="evenodd" clip-rule="evenodd" d="M21.9577 44.5095L6.62738 35.872C5.79126 35.4009 4.71486 35.6684 4.22313 36.4693C3.7314 37.2703 4.01056 38.3015 4.84665 38.7726L20.593 47.6445C21.4366 48.1197 22.4828 48.1192 23.3259 47.6431L42.5815 36.7683C43.4028 36.3045 43.9068 35.4593 43.9068 34.546V20.327C43.9068 19.3978 43.1205 18.6445 42.1506 18.6445C41.1806 18.6445 40.3943 19.3978 40.3943 20.327V34.0974L21.9577 44.5095Z" fill="#0095DA"/>
<path fill-rule="evenodd" clip-rule="evenodd" d="M21.9491 3.49102L37.2795 12.1285C38.1156 12.5996 39.192 12.3322 39.6837 11.5312C40.1754 10.7303 39.8963 9.69905 39.0602 9.228L23.3138 0.356085C22.4703 -0.119178 21.424 -0.118661 20.581 0.357436L1.32537 11.2322C0.504079 11.696 6.69968e-07 12.5413 6.69968e-07 13.4546L0 27.6735C0 28.6027 0.786316 29.356 1.75628 29.356C2.72625 29.356 3.51256 28.6027 3.51256 27.6735V13.9032L21.9491 3.49102Z" fill="#0095DA"/>
<path d="M56.3059 9.27539H60.2632V10.24H57.4437V16.0086H56.3059V9.27539Z" fill="black"/>
<path d="M61.8927 9.27539H63.0004V13.105L62.8897 14.4941H62.9202L63.625 13.2497L66.3232 9.27539H67.3507V16.0086H66.243V12.179L66.3537 10.7899H66.3232L65.6184 12.0343L62.9202 16.0086H61.8927V9.27539Z" fill="black"/>
<path d="M69.585 9.27539H74.0758V10.24H70.7225V11.9185H72.686C73.3376 11.9185 73.8411 12.105 74.1964 12.478C74.5524 12.8446 74.7303 13.3398 74.7303 13.9635C74.7303 14.5874 74.5524 15.0858 74.1964 15.4587C73.8411 15.8253 73.3376 16.0086 72.686 16.0086H69.585V9.27539ZM72.6158 15.0536C72.9044 15.0536 73.1292 14.9797 73.2902 14.8317C73.4518 14.6838 73.532 14.4619 73.532 14.1661V13.761C73.532 13.4652 73.4518 13.2433 73.2902 13.0954C73.1292 12.9475 72.9044 12.8735 72.6158 12.8735H70.7225V15.0536H72.6158Z" fill="black"/>
<path d="M76.5788 16.0086V9.27539H79.5996C80.2506 9.27539 80.7541 9.45867 81.11 9.82523C81.4654 10.1918 81.6433 10.6838 81.6433 11.3011C81.6433 11.9185 81.4654 12.4105 81.11 12.777C80.7541 13.1436 80.2506 13.3269 79.5996 13.3269H77.7163V16.0086H76.5788ZM77.7163 12.3719H79.5288C79.8174 12.3719 80.0428 12.3012 80.2038 12.1597C80.3648 12.0118 80.4455 11.8027 80.4455 11.5326V11.0696C80.4455 10.7995 80.3648 10.5937 80.2038 10.4522C80.0428 10.3044 79.8174 10.2304 79.5288 10.2304H77.7163V12.3719Z" fill="black"/>
<path d="M83.3945 9.27539H84.5022V13.105L84.3915 14.4941H84.422L85.1268 13.2497L87.825 9.27539H88.8525V16.0086H87.7448V12.179L87.8555 10.7899H87.825L87.1202 12.0343L84.422 16.0086H83.3945V9.27539Z" fill="black"/>
<path d="M90.3513 15.0439H91.0966C91.2307 14.8832 91.3518 14.6935 91.459 14.4748C91.5731 14.2497 91.6674 13.9893 91.7412 13.6934C91.8214 13.3912 91.8822 13.0471 91.9221 12.6613C91.9624 12.269 91.9829 11.822 91.9829 11.3204V9.27539H96.5645V15.0439H97.6112V17.4555H96.554V16.0086H91.4086V17.4555H90.3513V15.0439ZM95.4264 15.0439V10.24H93.08V11.4458C93.08 11.9281 93.0636 12.3558 93.0297 12.7288C93.0033 13.1018 92.9594 13.433 92.8991 13.7224C92.8453 14.0054 92.775 14.2529 92.6878 14.4651C92.607 14.671 92.5133 14.851 92.4056 15.0053V15.0439H95.4264Z" fill="black"/>
<path d="M103.599 13.0761H100.417V16.0086H99.2794V9.27539H100.417V12.1114H103.599V9.27539H104.737V16.0086H103.599V13.0761Z" fill="black"/>
<path d="M106.972 9.27539H108.109V11.8606H110.073C110.724 11.8606 111.227 12.0472 111.583 12.4201C111.939 12.7867 112.117 13.2915 112.117 13.9346C112.117 14.5777 111.939 15.0858 111.583 15.4587C111.227 15.8253 110.724 16.0086 110.073 16.0086H106.972V9.27539ZM110.002 15.0536C110.291 15.0536 110.516 14.9797 110.677 14.8317C110.838 14.6838 110.919 14.4619 110.919 14.1661V13.7031C110.919 13.4073 110.838 13.1854 110.677 13.0375C110.516 12.8896 110.291 12.8156 110.002 12.8156H108.109V15.0536H110.002ZM113.164 9.27539H114.302V16.0086H113.164V9.27539Z" fill="black"/>
<path d="M116.541 16.0086V9.27539H121.042V10.24H117.679V12.1114H120.73V13.0761H117.679V15.0439H121.042V16.0086H116.541Z" fill="black"/>
<path d="M60.6256 24.7411H57.4437V27.6736H56.3059V20.9404H57.4437V23.7765H60.6256V20.9404H61.7636V27.6736H60.6256V24.7411Z" fill="black"/>
<path d="M68.3881 27.6736L67.7535 25.8504H65.1255L64.5114 27.6736H63.3534L65.7501 20.9404H67.1797L69.5765 27.6736H68.3881ZM66.4649 21.9437H66.4146L65.3977 24.9147H67.4719L66.4649 21.9437Z" fill="black"/>
<path d="M75.4879 24.7411H72.3061V27.6736H71.1681V20.9404H72.3061V23.7765H75.4879V20.9404H76.6254V27.6736H75.4879V24.7411Z" fill="black"/>
<path d="M81.5787 27.7889C81.1221 27.7889 80.7058 27.715 80.33 27.567C79.9606 27.4127 79.6415 27.1908 79.3734 26.9014C79.1117 26.6057 78.9068 26.2423 78.7593 25.8114C78.6182 25.3741 78.5474 24.8725 78.5474 24.3066C78.5474 23.7407 78.6182 23.2423 78.7593 22.8114C78.9068 22.3741 79.1117 22.0107 79.3734 21.7213C79.6415 21.4255 79.9606 21.2037 80.33 21.0557C80.7058 20.9014 81.1221 20.8242 81.5787 20.8242C82.0348 20.8242 82.4481 20.9014 82.8169 21.0557C83.1927 21.2037 83.5118 21.4255 83.7735 21.7213C84.0422 22.0107 84.2471 22.3741 84.3876 22.8114C84.5357 23.2423 84.6095 23.7407 84.6095 24.3066C84.6095 24.8725 84.5357 25.3741 84.3876 25.8114C84.2471 26.2423 84.0422 26.6057 83.7735 26.9014C83.5118 27.1908 83.1927 27.4127 82.8169 27.567C82.4481 27.715 82.0348 27.7889 81.5787 27.7889ZM81.5787 26.8146C81.8468 26.8146 82.0921 26.7696 82.3134 26.6796C82.5417 26.5896 82.7332 26.461 82.8877 26.2937C83.0487 26.1201 83.1728 25.9111 83.26 25.6667C83.3473 25.4223 83.3912 25.1458 83.3912 24.8371V23.776C83.3912 23.4673 83.3473 23.1908 83.26 22.9464C83.1728 22.7021 83.0487 22.4963 82.8877 22.3291C82.7332 22.1554 82.5417 22.0236 82.3134 21.9336C82.0921 21.8435 81.8468 21.7985 81.5787 21.7985C81.303 21.7985 81.0547 21.8435 80.8335 21.9336C80.6116 22.0236 80.4207 22.1554 80.2592 22.3291C80.1052 22.4963 79.984 22.7021 79.8968 22.9464C79.8095 23.1908 79.7662 23.4673 79.7662 23.776V24.8371C79.7662 25.1458 79.8095 25.4223 79.8968 25.6667C79.984 25.9111 80.1052 26.1201 80.2592 26.2937C80.4207 26.461 80.6116 26.5896 80.8335 26.6796C81.0547 26.7696 81.303 26.8146 81.5787 26.8146Z" fill="black"/>
<path d="M89.1699 27.7889C88.2501 27.7889 87.5283 27.4931 87.0049 26.9014C86.4816 26.3034 86.2193 25.4384 86.2193 24.3066C86.2193 23.7407 86.2866 23.2423 86.4207 22.8114C86.5553 22.3805 86.7497 22.0172 87.0049 21.7213C87.2602 21.4255 87.5687 21.2037 87.9311 21.0557C88.3005 20.9014 88.7132 20.8242 89.1699 20.8242C89.7805 20.8242 90.2909 20.9529 90.7002 21.2101C91.1164 21.4673 91.4419 21.8467 91.6772 22.3483L90.7206 22.85C90.5995 22.5284 90.4115 22.2744 90.1569 22.0879C89.9081 21.895 89.5791 21.7985 89.1699 21.7985C88.626 21.7985 88.1998 21.9754 87.8913 22.3291C87.5822 22.6828 87.4276 23.1715 87.4276 23.7953V24.8178C87.4276 25.4416 87.5822 25.9304 87.8913 26.2841C88.1998 26.6378 88.626 26.8146 89.1699 26.8146C89.5925 26.8146 89.935 26.7118 90.1967 26.5059C90.4654 26.2937 90.6633 26.0236 90.7909 25.6956L91.7071 26.2262C91.4723 26.715 91.1433 27.0976 90.7206 27.3741C90.2974 27.6507 89.7805 27.7889 89.1699 27.7889Z" fill="black"/>
<path d="M95.9954 21.9051V27.6736H94.8579V21.9051H92.7633V20.9404H98.0901V21.9051H95.9954Z" fill="black"/>
<path d="M99.7023 27.6736V20.9404H102.723C103.375 20.9404 103.878 21.1237 104.234 21.4903C104.589 21.8568 104.767 22.3488 104.767 22.9662C104.767 23.5835 104.589 24.0755 104.234 24.4421C103.878 24.8086 103.375 24.9919 102.723 24.9919H100.84V27.6736H99.7023ZM100.84 24.0369H102.653C102.941 24.0369 103.166 23.9662 103.327 23.8247C103.488 23.6768 103.569 23.4678 103.569 23.1977V22.7347C103.569 22.4646 103.488 22.2588 103.327 22.1173C103.166 21.9694 102.941 21.8954 102.653 21.8954H100.84V24.0369Z" fill="black"/>
<path d="M106.953 26.709H108.06L108.322 26.0916L105.785 20.9404H106.993L108.281 23.5932L108.835 24.8376H108.876L109.349 23.5739L110.446 20.9404H111.584L109.117 26.7765C109.044 26.9501 108.966 27.0948 108.886 27.2106C108.805 27.3263 108.711 27.4196 108.604 27.4903C108.496 27.5547 108.369 27.6029 108.221 27.635C108.08 27.6608 107.909 27.6736 107.708 27.6736H106.953V26.709Z" fill="black"/>
<path d="M113.129 20.9404H114.267V23.7765H115.485L116.734 21.6736C116.888 21.4099 117.049 21.2234 117.217 21.1141C117.392 20.9983 117.603 20.9404 117.852 20.9404H118.385V21.9051H117.751L116.744 23.6028C116.63 23.7894 116.522 23.9244 116.422 24.008C116.328 24.0916 116.21 24.1559 116.069 24.2009V24.2491C116.23 24.2813 116.368 24.336 116.482 24.4131C116.596 24.4903 116.714 24.6318 116.834 24.8376L117.952 26.709H118.567V27.6736H117.872C117.65 27.6736 117.459 27.6222 117.298 27.5193C117.136 27.41 116.975 27.2202 116.814 26.9501L115.485 24.7315H114.267V27.6736H113.129V20.9404Z" fill="black"/>
<path d="M122.967 21.9051V27.6736H121.829V21.9051H119.734V20.9404H125.061V21.9051H122.967Z" fill="black"/>
<path d="M127.245 26.709H128.353L128.614 26.0916L126.077 20.9404H127.285L128.574 23.5932L129.128 24.8376H129.168L129.642 23.5739L130.739 20.9404H131.877L129.41 26.7765C129.336 26.9501 129.259 27.0948 129.179 27.2106C129.098 27.3263 129.004 27.4196 128.896 27.4903C128.789 27.5547 128.662 27.6029 128.514 27.635C128.373 27.6608 128.201 27.6736 128 27.6736H127.245V26.709Z" fill="black"/>
<path d="M133.421 27.6736V20.9404H136.442C137.093 20.9404 137.596 21.1237 137.952 21.4903C138.307 21.8568 138.485 22.3488 138.485 22.9662C138.485 23.5835 138.307 24.0755 137.952 24.4421C137.596 24.8086 137.093 24.9919 136.442 24.9919H134.558V27.6736H133.421ZM134.558 24.0369H136.371C136.66 24.0369 136.885 23.9662 137.046 23.8247C137.207 23.6768 137.288 23.4678 137.288 23.1977V22.7347C137.288 22.4646 137.207 22.2588 137.046 22.1173C136.885 21.9694 136.66 21.8954 136.371 21.8954H134.558V24.0369Z" fill="black"/>
<path d="M144.557 24.7411H141.375V27.6736H140.237V20.9404H141.375V23.7765H144.557V20.9404H145.695V27.6736H144.557V24.7411Z" fill="black"/>
<path d="M147.929 20.9404H149.066V23.5257H151.03C151.681 23.5257 152.185 23.7122 152.54 24.0852C152.896 24.4517 153.074 24.9566 153.074 25.5996C153.074 26.2427 152.896 26.7508 152.54 27.1238C152.185 27.4903 151.681 27.6736 151.03 27.6736H147.929V20.9404ZM150.96 26.7186C151.248 26.7186 151.473 26.6447 151.634 26.4967C151.796 26.3489 151.876 26.127 151.876 25.8311V25.3681C151.876 25.0723 151.796 24.8505 151.634 24.7025C151.473 24.5546 151.248 24.4807 150.96 24.4807H149.066V26.7186H150.96ZM154.122 20.9404H155.259V27.6736H154.122V20.9404Z" fill="black"/>
<path d="M157.499 27.6736V20.9404H162V21.9051H158.637V23.7765H161.688V24.7411H158.637V26.709H162V27.6736H157.499Z" fill="black"/>
<path d="M61.6828 34.1875H61.6325L61.0787 35.2775L59.5378 37.9689L57.9975 35.2775L57.4437 34.1875H57.3934V39.3386H56.3059V32.6055H57.6552L59.5378 36.0299H59.5987L61.4815 32.6055H62.7706V39.3386H61.6828V34.1875Z" fill="black"/>
<path d="M69.4005 39.3386L68.7659 37.5155H66.1379L65.5238 39.3386H64.3658L66.7625 32.6055H68.1921L70.5889 39.3386H69.4005ZM67.4773 33.6087H67.427L66.4101 36.5798H68.4843L67.4773 33.6087Z" fill="black"/>
<path d="M74.1301 33.5701V39.3386H72.9921V33.5701H70.8974V32.6055H76.2242V33.5701H74.1301Z" fill="black"/>
<path d="M77.8374 39.3386V32.6055H82.3382V33.5701H78.9749V35.4415H82.0261V36.4061H78.9749V38.374H82.3382V39.3386H77.8374Z" fill="black"/>
<path d="M84.3093 39.3386V32.6055H87.3301C87.9817 32.6055 88.4852 32.7888 88.8405 33.1553C89.1965 33.5219 89.3744 34.0138 89.3744 34.6312C89.3744 35.2486 89.1965 35.7405 88.8405 36.1071C88.4852 36.4737 87.9817 36.657 87.3301 36.657H85.4474V39.3386H84.3093ZM85.4474 35.702H87.2599C87.5485 35.702 87.7733 35.6312 87.9343 35.4897C88.0959 35.3418 88.1761 35.1328 88.1761 34.8627V34.3997C88.1761 34.1296 88.0959 33.9238 87.9343 33.7823C87.7733 33.6344 87.5485 33.5605 87.2599 33.5605H85.4474V35.702Z" fill="black"/>
<path d="M91.126 32.6055H92.2336V36.4351L92.123 37.8242H92.1528L92.8577 36.5798L95.5565 32.6055H96.5833V39.3386H95.4757V35.509L95.5869 34.12H95.5565L94.8516 35.3643L92.1528 39.3386H91.126V32.6055Z" fill="black"/>
<path d="M103.208 39.3386L102.573 37.5155H99.9452L99.331 39.3386H98.1731L100.569 32.6055H101.999L104.396 39.3386H103.208ZM101.285 33.6087H101.234L100.217 36.5798H102.292L101.285 33.6087Z" fill="black"/>
<path d="M105.312 38.374H106.088C106.222 38.2454 106.339 38.0879 106.44 37.9013C106.541 37.7149 106.621 37.4769 106.682 37.1875C106.749 36.8981 106.799 36.5444 106.833 36.1264C106.866 35.702 106.883 35.1875 106.883 34.583V32.6055H111.424V39.3386H110.286V33.5701H107.98V34.7084C107.98 35.3579 107.957 35.9174 107.91 36.3869C107.87 36.8499 107.809 37.2454 107.729 37.5734C107.648 37.9013 107.548 38.1714 107.427 38.3837C107.312 38.5959 107.185 38.7696 107.044 38.9046C106.87 39.0654 106.682 39.1844 106.481 39.2615C106.279 39.3323 106.034 39.3676 105.745 39.3676H105.312V38.374Z" fill="black"/>
<path d="M113.66 32.6055H114.797V35.1907H116.761C117.413 35.1907 117.916 35.3772 118.271 35.7502C118.627 36.1168 118.805 36.6216 118.805 37.2647C118.805 37.9078 118.627 38.4158 118.271 38.7888C117.916 39.1554 117.413 39.3386 116.761 39.3386H113.66V32.6055ZM116.691 38.3837C116.979 38.3837 117.204 38.3097 117.365 38.1618C117.527 38.0139 117.607 37.792 117.607 37.4962V37.0332C117.607 36.7374 117.527 36.5155 117.365 36.3676C117.204 36.2197 116.979 36.1457 116.691 36.1457H114.797V38.3837H116.691ZM119.853 32.6055H120.99V39.3386H119.853V32.6055Z" fill="black"/>
</svg>
