<svg width="162" height="50" viewBox="0 0 162 50" fill="none" xmlns="http://www.w3.org/2000/svg">
<path fill-rule="evenodd" clip-rule="evenodd" d="M21.9389 37.836L33.1355 31.2742V18.3751L21.9389 11.8133L10.7137 18.3763V31.273L21.9389 37.836ZM23.3031 41.1015C22.4621 41.5944 21.4196 41.595 20.578 41.1029L8.53278 34.0604C7.70798 33.5782 7.20117 32.6957 7.20117 31.7417V17.9076C7.20117 16.9536 7.70798 16.0712 8.53278 15.5889L20.578 8.54638C21.4196 8.05436 22.4621 8.05488 23.3031 8.54778L35.3189 15.5897C36.1423 16.0723 36.6481 16.9539 36.6481 17.907V31.7424C36.6481 32.6953 36.1423 33.5771 35.3189 34.0596L23.3031 41.1015Z" fill="#FF8400"/>
<path fill-rule="evenodd" clip-rule="evenodd" d="M21.9298 29.3104L25.8173 27.046V22.6045L21.9298 20.3401L18.0311 22.6057V27.0449L21.9298 29.3104ZM23.2878 32.578C22.4499 33.0661 21.4136 33.0667 20.5751 32.5795L15.8564 29.8373C15.0281 29.356 14.5186 28.4716 14.5186 27.515V22.1355C14.5186 21.179 15.0281 20.2946 15.8564 19.8132L20.5751 17.0711C21.4136 16.5839 22.4499 16.5844 23.2878 17.0725L27.9944 19.8139C28.8214 20.2956 29.3298 21.1793 29.3298 22.1349V27.5157C29.3298 28.4712 28.8214 29.3549 27.9944 29.8366L23.2878 32.578Z" fill="#0095DA"/>
<path fill-rule="evenodd" clip-rule="evenodd" d="M21.9577 46.3645L6.6274 37.3672C5.79129 36.8764 4.71489 37.155 4.22316 37.9893C3.73144 38.8237 4.0106 39.8979 4.84668 40.3886L20.593 49.6301C21.4366 50.1252 22.4828 50.1247 23.3259 49.6287L42.5814 38.3008C43.4027 37.8177 43.9068 36.9372 43.9068 35.9859V21.1745C43.9068 20.2066 43.1205 19.4219 42.1505 19.4219C41.1805 19.4219 40.3942 20.2066 40.3942 21.1745V35.5186L21.9577 46.3645Z" fill="#0095DA"/>
<path fill-rule="evenodd" clip-rule="evenodd" d="M21.9491 3.63648L37.2794 12.6339C38.1155 13.1246 39.1919 12.846 39.6836 12.0116C40.1754 11.1773 39.8962 10.1032 39.0601 9.61249L23.3138 0.370921C22.4702 -0.124144 21.4239 -0.123605 20.5809 0.372329L1.32536 11.7002C0.504078 12.1833 6.69967e-07 13.0638 6.69967e-07 14.0152L0 28.8265C0 29.7945 0.786315 30.5791 1.75628 30.5791C2.72624 30.5791 3.51255 29.7945 3.51255 28.8265V14.4825L21.9491 3.63648Z" fill="#0095DA"/>
<path d="M56.3066 9.66211H60.2639V10.6669H57.4445V16.6758H56.3066V9.66211Z" fill="black"/>
<path d="M61.8926 9.66211H63.0002V13.6513L62.8896 15.0982H62.92L63.6249 13.802L66.3231 9.66211H67.3505V16.6758H66.2429V12.6867L66.3535 11.2397H66.3231L65.6182 12.5359L62.92 16.6758H61.8926V9.66211Z" fill="black"/>
<path d="M69.585 9.66211H74.0758V10.6669H70.7224V12.4153H72.686C73.3375 12.4153 73.841 12.6097 74.1964 12.9981C74.5523 13.38 74.7303 13.8958 74.7303 14.5456C74.7303 15.1954 74.5523 15.7146 74.1964 16.1031C73.841 16.4849 73.3375 16.6758 72.686 16.6758H69.585V9.66211ZM72.6157 15.681C72.9043 15.681 73.1291 15.604 73.2901 15.4499C73.4517 15.2959 73.5319 15.0648 73.5319 14.7566V14.3346C73.5319 14.0265 73.4517 13.7954 73.2901 13.6412C73.1291 13.4872 72.9043 13.4101 72.6157 13.4101H70.7224V15.681H72.6157Z" fill="black"/>
<path d="M76.5781 16.6758V9.66211H79.5989C80.2499 9.66211 80.7534 9.85303 81.1093 10.2349C81.4647 10.6167 81.6426 11.1292 81.6426 11.7723C81.6426 12.4153 81.4647 12.9278 81.1093 13.3096C80.7534 13.6915 80.2499 13.8824 79.5989 13.8824H77.7156V16.6758H76.5781ZM77.7156 12.8876H79.5281C79.8167 12.8876 80.0421 12.8139 80.2031 12.6666C80.3641 12.5125 80.4449 12.2948 80.4449 12.0134V11.5311C80.4449 11.2497 80.3641 11.0354 80.2031 10.888C80.0421 10.7339 79.8167 10.6569 79.5281 10.6569H77.7156V12.8876Z" fill="black"/>
<path d="M83.3945 9.66211H84.5022V13.6513L84.3915 15.0982H84.422L85.1268 13.802L87.825 9.66211H88.8525V16.6758H87.7448V12.6867L87.8555 11.2397H87.825L87.1202 12.5359L84.422 16.6758H83.3945V9.66211Z" fill="black"/>
<path d="M90.3506 15.671H91.0958C91.2299 15.5036 91.3511 15.3059 91.4582 15.0781C91.5724 14.8437 91.6666 14.5724 91.7404 14.2642C91.8206 13.9494 91.8815 13.591 91.9213 13.1891C91.9617 12.7805 91.9822 12.3149 91.9822 11.7924V9.66211H96.5637V15.671H97.6105V18.1831H96.5532V16.6758H91.4079V18.1831H90.3506V15.671ZM95.4256 15.671V10.6669H93.0793V11.923C93.0793 12.4254 93.0629 12.8709 93.0289 13.2594C93.0026 13.648 92.9587 13.9929 92.8984 14.2944C92.8445 14.5892 92.7743 14.847 92.687 15.0681C92.6062 15.2825 92.5126 15.47 92.4049 15.6308V15.671H95.4256Z" fill="black"/>
<path d="M103.599 13.6211H100.417V16.6758H99.2793V9.66211H100.417V12.6163H103.599V9.66211H104.737V16.6758H103.599V13.6211Z" fill="black"/>
<path d="M106.972 9.66211H108.109V12.3551H110.073C110.724 12.3551 111.227 12.5494 111.583 12.9379C111.939 13.3197 112.117 13.8456 112.117 14.5154C112.117 15.1853 111.939 15.7146 111.583 16.1031C111.227 16.4849 110.724 16.6758 110.073 16.6758H106.972V9.66211ZM110.002 15.681C110.291 15.681 110.516 15.604 110.677 15.4499C110.838 15.2959 110.919 15.0648 110.919 14.7566V14.2743C110.919 13.9662 110.838 13.7351 110.677 13.5809C110.516 13.4269 110.291 13.3498 110.002 13.3498H108.109V15.681H110.002ZM113.164 9.66211H114.302V16.6758H113.164V9.66211Z" fill="black"/>
<path d="M116.541 16.6758V9.66211H121.042V10.6669H117.679V12.6163H120.73V13.6211H117.679V15.671H121.042V16.6758H116.541Z" fill="black"/>
<path d="M60.6263 25.7725H57.4445V28.8272H56.3066V21.8135H57.4445V24.7677H60.6263V21.8135H61.7644V28.8272H60.6263V25.7725Z" fill="black"/>
<path d="M68.3872 28.8272L67.7526 26.9281H65.1246L64.5105 28.8272H63.3525L65.7493 21.8135H67.1789L69.5756 28.8272H68.3872ZM66.4641 22.8585H66.4137L65.3968 25.9534H67.471L66.4641 22.8585Z" fill="black"/>
<path d="M75.4878 25.7725H72.306V28.8272H71.168V21.8135H72.306V24.7677H75.4878V21.8135H76.6253V28.8272H75.4878V25.7725Z" fill="black"/>
<path d="M81.5782 28.9463C81.1216 28.9463 80.7053 28.8693 80.3295 28.7152C79.9601 28.5544 79.641 28.3233 79.3729 28.0218C79.1112 27.7137 78.9063 27.3352 78.7588 26.8864C78.6177 26.4309 78.5469 25.9084 78.5469 25.3188C78.5469 24.7294 78.6177 24.2102 78.7588 23.7614C78.9063 23.3059 79.1112 22.9273 79.3729 22.6259C79.641 22.3178 79.9601 22.0867 80.3295 21.9326C80.7053 21.7718 81.1216 21.6914 81.5782 21.6914C82.0343 21.6914 82.4476 21.7718 82.8164 21.9326C83.1922 22.0867 83.5113 22.3178 83.773 22.6259C84.0417 22.9273 84.2466 23.3059 84.3871 23.7614C84.5352 24.2102 84.609 24.7294 84.609 25.3188C84.609 25.9084 84.5352 26.4309 84.3871 26.8864C84.2466 27.3352 84.0417 27.7137 83.773 28.0218C83.5113 28.3233 83.1922 28.5544 82.8164 28.7152C82.4476 28.8693 82.0343 28.9463 81.5782 28.9463ZM81.5782 27.9314C81.8463 27.9314 82.0916 27.8846 82.3129 27.7907C82.5412 27.697 82.7327 27.563 82.8872 27.3888C83.0482 27.2079 83.1723 26.9903 83.2596 26.7357C83.3468 26.4811 83.3907 26.193 83.3907 25.8715V24.7662C83.3907 24.4446 83.3468 24.1566 83.2596 23.902C83.1723 23.6475 83.0482 23.4332 82.8872 23.2589C82.7327 23.0781 82.5412 22.9408 82.3129 22.847C82.0916 22.7532 81.8463 22.7063 81.5782 22.7063C81.3025 22.7063 81.0543 22.7532 80.833 22.847C80.6111 22.9408 80.4202 23.0781 80.2587 23.2589C80.1047 23.4332 79.9835 23.6475 79.8963 23.902C79.8091 24.1566 79.7657 24.4446 79.7657 24.7662V25.8715C79.7657 26.193 79.8091 26.4811 79.8963 26.7357C79.9835 26.9903 80.1047 27.2079 80.2587 27.3888C80.4202 27.563 80.6111 27.697 80.833 27.7907C81.0543 27.8846 81.3025 27.9314 81.5782 27.9314Z" fill="black"/>
<path d="M89.1703 28.9463C88.2506 28.9463 87.5287 28.6382 87.0054 28.0218C86.482 27.3988 86.2197 26.4979 86.2197 25.3188C86.2197 24.7294 86.287 24.2102 86.4211 23.7614C86.5558 23.3126 86.7501 22.9341 87.0054 22.6259C87.2606 22.3178 87.5691 22.0867 87.9315 21.9326C88.3009 21.7718 88.7136 21.6914 89.1703 21.6914C89.7809 21.6914 90.2914 21.8254 90.7006 22.0933C91.1168 22.3613 91.4423 22.7565 91.6777 23.279L90.7211 23.8016C90.5999 23.4666 90.412 23.202 90.1573 23.0077C89.9085 22.8068 89.5795 22.7063 89.1703 22.7063C88.6264 22.7063 88.2002 22.8905 87.8917 23.2589C87.5826 23.6274 87.428 24.1365 87.428 24.7863V25.8514C87.428 26.5012 87.5826 27.0104 87.8917 27.3787C88.2002 27.7472 88.6264 27.9314 89.1703 27.9314C89.593 27.9314 89.9354 27.8243 90.1971 27.6099C90.4658 27.3888 90.6637 27.1074 90.7913 26.7658L91.7075 27.3185C91.4728 27.8276 91.1437 28.2262 90.7211 28.5142C90.2978 28.8023 89.7809 28.9463 89.1703 28.9463Z" fill="black"/>
<path d="M95.9948 22.8183V28.8272H94.8573V22.8183H92.7627V21.8135H98.0895V22.8183H95.9948Z" fill="black"/>
<path d="M99.7021 28.8272V21.8135H102.723C103.375 21.8135 103.878 22.0044 104.233 22.3862C104.589 22.7681 104.767 23.2805 104.767 23.9236C104.767 24.5667 104.589 25.0792 104.233 25.461C103.878 25.8428 103.375 26.0338 102.723 26.0338H100.84V28.8272H99.7021ZM100.84 25.039H102.653C102.941 25.039 103.166 24.9653 103.327 24.8179C103.488 24.6639 103.569 24.4461 103.569 24.1648V23.6825C103.569 23.4011 103.488 23.1868 103.327 23.0394C103.166 22.8853 102.941 22.8083 102.653 22.8083H100.84V25.039Z" fill="black"/>
<path d="M106.952 27.8224H108.06L108.321 27.1793L105.784 21.8135H106.992L108.281 24.5768L108.835 25.873H108.875L109.349 24.5567L110.446 21.8135H111.584L109.117 27.8927C109.043 28.0736 108.966 28.2243 108.885 28.3449C108.805 28.4655 108.711 28.5626 108.604 28.6363C108.496 28.7033 108.369 28.7535 108.221 28.787C108.08 28.8138 107.909 28.8272 107.707 28.8272H106.952V27.8224Z" fill="black"/>
<path d="M113.129 21.8135H114.266V24.7677H115.485L116.733 22.5771C116.888 22.3025 117.049 22.1083 117.217 21.9943C117.391 21.8738 117.603 21.8135 117.852 21.8135H118.385V22.8183H117.751L116.744 24.5868C116.63 24.7811 116.522 24.9218 116.421 25.0088C116.328 25.0959 116.21 25.163 116.069 25.2098V25.26C116.23 25.2936 116.367 25.3505 116.482 25.4309C116.596 25.5113 116.713 25.6586 116.834 25.873L117.952 27.8224H118.566V28.8272H117.871C117.65 28.8272 117.459 28.7736 117.298 28.6664C117.136 28.5526 116.975 28.3549 116.814 28.0736L115.485 25.7625H114.266V28.8272H113.129V21.8135Z" fill="black"/>
<path d="M122.966 22.8183V28.8272H121.828V22.8183H119.733V21.8135H125.06V22.8183H122.966Z" fill="black"/>
<path d="M127.245 27.8224H128.353L128.614 27.1793L126.077 21.8135H127.285L128.574 24.5768L129.128 25.873H129.168L129.642 24.5567L130.739 21.8135H131.877L129.41 27.8927C129.336 28.0736 129.259 28.2243 129.179 28.3449C129.098 28.4655 129.004 28.5626 128.897 28.6363C128.789 28.7033 128.662 28.7535 128.514 28.787C128.373 28.8138 128.202 28.8272 128 28.8272H127.245V27.8224Z" fill="black"/>
<path d="M133.421 28.8272V21.8135H136.442C137.093 21.8135 137.596 22.0044 137.952 22.3862C138.307 22.7681 138.485 23.2805 138.485 23.9236C138.485 24.5667 138.307 25.0792 137.952 25.461C137.596 25.8428 137.093 26.0338 136.442 26.0338H134.558V28.8272H133.421ZM134.558 25.039H136.371C136.659 25.039 136.885 24.9653 137.046 24.8179C137.207 24.6639 137.288 24.4461 137.288 24.1648V23.6825C137.288 23.4011 137.207 23.1868 137.046 23.0394C136.885 22.8853 136.659 22.8083 136.371 22.8083H134.558V25.039Z" fill="black"/>
<path d="M144.556 25.7725H141.374V28.8272H140.236V21.8135H141.374V24.7677H144.556V21.8135H145.694V28.8272H144.556V25.7725Z" fill="black"/>
<path d="M147.929 21.8135H149.066V24.5064H151.03C151.681 24.5064 152.185 24.7007 152.54 25.0892C152.896 25.4711 153.074 25.997 153.074 26.6668C153.074 27.3367 152.896 27.8659 152.54 28.2544C152.185 28.6363 151.681 28.8272 151.03 28.8272H147.929V21.8135ZM150.959 27.8324C151.248 27.8324 151.473 27.7554 151.634 27.6013C151.795 27.4472 151.876 27.2161 151.876 26.908V26.4257C151.876 26.1175 151.795 25.8864 151.634 25.7323C151.473 25.5783 151.248 25.5012 150.959 25.5012H149.066V27.8324H150.959ZM154.121 21.8135H155.259V28.8272H154.121V21.8135Z" fill="black"/>
<path d="M157.499 28.8272V21.8135H162V22.8183H158.637V24.7677H161.688V25.7725H158.637V27.8224H162V28.8272H157.499Z" fill="black"/>
<path d="M61.6836 35.6128H61.6333L61.0794 36.7482L59.5386 39.5517L57.9983 36.7482L57.4445 35.6128H57.3941V40.9786H56.3066V33.9648H57.6559L59.5386 37.532H59.5995L61.4822 33.9648H62.7713V40.9786H61.6836V35.6128Z" fill="black"/>
<path d="M69.4009 40.9786L68.7663 39.0794H66.1383L65.5242 40.9786H64.3662L66.7629 33.9648H68.1926L70.5893 40.9786H69.4009ZM67.4778 35.0099H67.4274L66.4105 38.1047H68.4847L67.4778 35.0099Z" fill="black"/>
<path d="M74.1302 34.9697V40.9786H72.9921V34.9697H70.8975V33.9648H76.2243V34.9697H74.1302Z" fill="black"/>
<path d="M77.8379 40.9786V33.9648H82.3386V34.9697H78.9754V36.919H82.0266V37.9239H78.9754V39.9737H82.3386V40.9786H77.8379Z" fill="black"/>
<path d="M84.3096 40.9786V33.9648H87.3304C87.9819 33.9648 88.4854 34.1558 88.8408 34.5376C89.1967 34.9194 89.3747 35.4319 89.3747 36.075C89.3747 36.7181 89.1967 37.2305 88.8408 37.6124C88.4854 37.9942 87.9819 38.1851 87.3304 38.1851H85.4476V40.9786H84.3096ZM85.4476 37.1904H87.2601C87.5487 37.1904 87.7735 37.1167 87.9345 36.9693C88.0961 36.8152 88.1763 36.5975 88.1763 36.3162V35.8338C88.1763 35.5525 88.0961 35.3381 87.9345 35.1907C87.7735 35.0367 87.5487 34.9596 87.2601 34.9596H85.4476V37.1904Z" fill="black"/>
<path d="M91.126 33.9648H92.2336V37.954L92.123 39.401H92.1528L92.8577 38.1047L95.5565 33.9648H96.5833V40.9786H95.4757V36.9894L95.5869 35.5424H95.5565L94.8516 36.8387L92.1528 40.9786H91.126V33.9648Z" fill="black"/>
<path d="M103.207 40.9786L102.572 39.0794H99.944L99.3298 40.9786H98.1719L100.568 33.9648H101.998L104.394 40.9786H103.207ZM101.283 35.0099H101.233L100.216 38.1047H102.29L101.283 35.0099Z" fill="black"/>
<path d="M105.312 39.9737H106.087C106.221 39.8398 106.339 39.6757 106.44 39.4814C106.54 39.2871 106.621 39.0392 106.681 38.7378C106.748 38.4363 106.799 38.0679 106.832 37.6325C106.866 37.1904 106.883 36.6545 106.883 36.0247V33.9648H111.424V40.9786H110.286V34.9697H107.98V36.1554C107.98 36.832 107.956 37.4148 107.91 37.9038C107.869 38.3861 107.809 38.7981 107.728 39.1397C107.648 39.4814 107.547 39.7627 107.426 39.9838C107.312 40.2048 107.185 40.3858 107.044 40.5264C106.869 40.6939 106.681 40.8179 106.48 40.8982C106.279 40.9719 106.033 41.0087 105.745 41.0087H105.312V39.9737Z" fill="black"/>
<path d="M113.66 33.9648H114.798V36.6578H116.761C117.413 36.6578 117.916 36.8521 118.272 37.2406C118.627 37.6224 118.805 38.1483 118.805 38.8182C118.805 39.4881 118.627 40.0173 118.272 40.4058C117.916 40.7876 117.413 40.9786 116.761 40.9786H113.66V33.9648ZM116.691 39.9838C116.98 39.9838 117.204 39.9068 117.365 39.7527C117.527 39.5986 117.607 39.3675 117.607 39.0593V38.577C117.607 38.2689 117.527 38.0378 117.365 37.8837C117.204 37.7296 116.98 37.6526 116.691 37.6526H114.798V39.9838H116.691ZM119.853 33.9648H120.99V40.9786H119.853V33.9648Z" fill="black"/>
</svg>
