<svg id="Layer_12" data-name="Layer 12" xmlns="http://www.w3.org/2000/svg" viewBox="0 0 512 512"><defs><style>.cls-1{fill:#f1730d;}.cls-2{fill:#77acf0;}.cls-3{fill:#213e58;}</style></defs><path class="cls-1" d="M341.05,215l11.43,26.8-53.84,32.37-17.69-21"/><path class="cls-2" d="M168.65,85.9,160,77.54a12.72,12.72,0,0,1,4.33-17.92l52.06-31.31A13.81,13.81,0,0,1,235,32.47c4,6.08,4.34,17.92,4.34,17.92"/><path class="cls-2" d="M196.46,153.67c-51.25,25.18-86.34,76.51-86.34,135.77,0,71.35,50.9,131.25,119.61,147.78a29,29,0,0,1-.21-3.5c0-16.85,14.14-30.51,31.63-30.51,16.08,0,29.33,11.59,31.34,26.56,0,0,109.32-46.59,103.87-46.59H268.17c-53.72,0-97.28-42-97.28-93.74,0-38.25,23.76-71.13,57.81-85.71"/><path class="cls-2" d="M342.05,192.9a15.29,15.29,0,0,1-5.18,21.53l-56.26,33.81a16.55,16.55,0,0,1-22.33-5l-85.61-135a15.32,15.32,0,0,1,5.18-21.53l56.26-33.81a16.57,16.57,0,0,1,22.35,5Z"/><path class="cls-2" d="M395.91,479.43,292.54,437.11c-1.78,15.18-15.12,27-31.36,27-15.34,0-28.12-10.56-31-24.55L190.4,474.85c-6.71,6-4.74,10.83,4.38,10.83H394.59C403.73,485.68,404.32,482.87,395.91,479.43Z"/><path class="cls-1" d="M287.75,433.65c0,14.09-11.84,25.51-26.48,25.51s-26.43-11.42-26.43-25.51,11.84-25.49,26.43-25.49S287.75,419.58,287.75,433.65Z"/><path class="cls-3" d="M246.67,355a9,9,0,0,0,9.12,8.79H394a8.8,8.8,0,1,0,0-17.59H255.79A9,9,0,0,0,246.67,355Z"/><path class="cls-3" d="M399.47,471.33l-92.8-38c100.76-43,100.71-43.24,98.81-51.91a9.34,9.34,0,0,0-9.12-7H268.17c-48.61,0-88.16-38.11-88.16-85,0-32.24,19.09-61.48,48.8-75.82l21.72,34.27A25.45,25.45,0,0,0,272,259.38c.74,0,1.45-.24,2.18-.3l17.33,20.56a9.39,9.39,0,0,0,11.91,1.91l53.85-32.37a8.62,8.62,0,0,0,3.6-10.8L350.18,213.2a23.5,23.5,0,0,0-.35-24.91L264.19,53.19a25.12,25.12,0,0,0-16.56-10.91c-.74-4.6-2.15-10.23-4.92-14.5-6.62-10.19-20.61-13.3-31.17-7l-52,31.29A21.68,21.68,0,0,0,149.4,65.69a21,21,0,0,0,2.84,16.47,8.43,8.43,0,0,0,1.29,1.57l8.67,8.36c.09.08.21.11.3.18a23.41,23.41,0,0,0,2.38,20.5l22.6,35.65C134,176.81,101,230.31,101,289.43c0,69.55,45.83,130.43,113,152.48l-29.82,26.46c-8.37,7.44-7.39,14.05-6.06,17.33,1.07,2.63,4.83,8.76,16.62,8.76H394.59c9.49,0,14.94-3,16.18-8.87S408.21,474.89,399.47,471.33ZM238.64,433.71c0-12,10.1-21.72,22.51-21.72,11.26,0,20.85,8.12,22.29,18.91a18.09,18.09,0,0,1,.19,2.54,21.84,21.84,0,0,1-.15,2.67c-1.28,10.93-10.87,19.17-22.3,19.17-10.7,0-20-7.34-22-17.45a6.92,6.92,0,0,0-.38-1.08c0-.18,0-.36,0-.55A20.43,20.43,0,0,1,238.64,433.71Zm62-171.18-8.95-10.62,44-26.44,5.42,12.72ZM169.13,67.05l52.07-31.3a4.5,4.5,0,0,1,6,1.36c1.1,1.68,1.87,5,2.37,8.12-.1.07-.23.09-.33.15L174,78.6l-6.62-6.39a4,4,0,0,1-.21-2.54A4.15,4.15,0,0,1,169.13,67.05Zm13.54,27.06L238.93,60.3a7.25,7.25,0,0,1,3.74-1,7.07,7.07,0,0,1,6,3.16l85.66,135.11a6.71,6.71,0,0,1-2.28,9.41l-56.27,33.81a7.4,7.4,0,0,1-9.72-2.11L180.41,103.53A6.71,6.71,0,0,1,182.67,94.11ZM119.24,289.43c0-52.93,29.72-100.81,77.75-126l22.19,35c-35.07,17.54-57.41,52.59-57.41,91C161.77,346,209.5,392,268.17,392h89.31c-16.94,7.49-38.27,16.74-59.16,25.69a41,41,0,0,0-37.17-23.25c-19.63,0-36.06,13.45-39.9,31.29C160.66,406.44,119.24,351.85,119.24,289.43Zm82.33,187.45,25.18-22.35a41.16,41.16,0,0,0,34.43,18.33c16.66,0,31.15-9.65,37.4-23.74l67.79,27.76Z"/><path class="cls-3" d="M262.42,139.59l-15.5,9.25,7.73,12,15.51-9.26Z"/><path class="cls-3" d="M247,115.46l-15.52,9.25,7.74,12.06,15.52-9.26Z"/><path class="cls-3" d="M285.63,175.75l-7.72-12.05-15.53,9.24L270.11,185Z"/><circle class="cls-1" cx="261.13" cy="433.66" r="22.5"/></svg>