<svg id="Layer_8" data-name="Layer 8" xmlns="http://www.w3.org/2000/svg" viewBox="0 0 512 512"><defs><style>.cls-1{fill:#213e58;}.cls-1,.cls-2,.cls-3,.cls-4{stroke:#213e58;stroke-miterlimit:10;stroke-width:10px;}.cls-2{fill:#39b54a;}.cls-3{fill:#77acf0;}.cls-4{fill:#4c94f0;}</style></defs><path class="cls-1" d="M67.33,87H425a0,0,0,0,1,0,0V370.33a0,0,0,0,1,0,0H28.33a0,0,0,0,1,0,0V126A39,39,0,0,1,67.33,87Z"/><rect class="cls-2" x="76.64" y="99.86" width="259.57" height="218.04" transform="translate(-87.24 207.14) rotate(-45)"/><rect class="cls-2" x="122.67" y="91.95" width="266.67" height="224" transform="translate(-69.23 240.75) rotate(-45)"/><rect class="cls-2" x="122.67" y="151.47" width="266.67" height="224" transform="translate(-111.32 258.19) rotate(-45)"/><path class="cls-3" d="M28.33,180.33h438a0,0,0,0,1,0,0V475.67a0,0,0,0,1,0,0h-399a39,39,0,0,1-39-39V180.33A0,0,0,0,1,28.33,180.33Z"/><rect class="cls-4" x="366.33" y="275.67" width="118.67" height="93.33" rx="30"/><circle class="cls-1" cx="407" cy="322.33" r="18.67"/></svg>