<svg width="36" height="40" viewBox="0 0 36 40" fill="none" xmlns="http://www.w3.org/2000/svg">
<path d="M3.79226 10.4259C3.47541 10.6135 3.37058 11.0227 3.55845 11.3394C3.68282 11.5493 3.9049 11.6662 4.13285 11.6662C4.2485 11.6662 4.3654 11.6363 4.47218 11.5731L9.40337 8.65321L14.2635 11.4582C14.5823 11.6418 14.99 11.5324 15.1747 11.2141C15.3587 10.8951 15.2496 10.4875 14.9304 10.3033L9.73255 7.30327C9.52381 7.18247 9.26658 7.18441 9.05918 7.30714L3.79226 10.4259Z" fill="black"/>
<path d="M35.6665 8.42253L27.278 3.58107C27.3152 3.3928 27.3367 3.199 27.3367 3C27.3367 1.34573 25.9905 0 24.3356 0C22.6808 0 21.3345 1.34573 21.3345 3C21.3345 4.65427 22.6808 6 24.3356 6C25.3124 6 26.1731 5.52407 26.7215 4.79973L34.6662 9.38473V18.6153L26.6698 23.2301L18.6734 18.6153V9C18.6734 8.76967 18.5493 8.57667 18.3717 8.45687C18.3561 8.44607 18.3435 8.43213 18.3269 8.42253L18.2832 8.39727C18.2755 8.3938 18.2695 8.38813 18.2616 8.38487L9.66364 3.42253C9.45717 3.3034 9.20321 3.3034 8.99673 3.42253L0.333454 8.42253C0.126979 8.54167 0 8.76173 0 9V19C0 19.2383 0.126979 19.4583 0.333454 19.5775L8.66981 24.3889V34.3333C8.66981 34.5716 8.79679 34.7917 9.00327 34.9108L17.6665 39.9108C17.7698 39.9704 17.8847 40 18 40C18.1153 40 18.2302 39.9704 18.3335 39.9108L26.3879 35.2622C26.9138 35.7157 27.5897 36 28.3371 36C29.992 36 31.3382 34.6543 31.3382 33C31.3382 31.3457 29.992 30 28.3371 30C26.6822 30 25.336 31.3457 25.336 33C25.336 33.4217 25.4254 33.8223 25.5832 34.1869L18 38.5635L10.0036 33.9486V24.3813L18 19.7661L26.3364 24.5775C26.4396 24.6371 26.5545 24.6667 26.6698 24.6667C26.7851 24.6667 26.9 24.6371 27.0033 24.5775L35.6665 19.5775C35.873 19.4583 36 19.2383 36 19V9C36 8.76173 35.873 8.54167 35.6665 8.42253ZM24.3356 4.66667C23.4164 4.66667 22.6684 3.91893 22.6684 3C22.6684 2.08107 23.4164 1.33333 24.3356 1.33333C25.2549 1.33333 26.0029 2.08107 26.0029 3C26.0029 3.91893 25.2549 4.66667 24.3356 4.66667ZM28.3371 31.3333C29.2564 31.3333 30.0044 32.0811 30.0044 33C30.0044 33.9189 29.2564 34.6667 28.3371 34.6667C27.953 34.6667 27.6033 34.5309 27.3211 34.3119C27.3179 34.2054 27.298 34.0988 27.241 34C27.1464 33.8367 26.9927 33.7305 26.8228 33.6881C26.7267 33.4778 26.6698 33.246 26.6698 33C26.6698 32.0811 27.4178 31.3333 28.3371 31.3333ZM17.3266 18.6153L9.33019 23.2301L1.33382 18.6153V9.38473L9.33019 4.76987L17.3266 9.38473V18.6153Z" fill="black"/>
</svg>
