<svg id="Layer_10" data-name="Layer 10" xmlns="http://www.w3.org/2000/svg" viewBox="0 0 512 512"><defs><style>.cls-1{fill:none;stroke:#213e58;stroke-miterlimit:10;stroke-width:16px;}</style></defs><path class="cls-1" d="M266.37,239.61V134.17a10.34,10.34,0,0,0-5.17-9L169.89,72.49a10.34,10.34,0,0,0-10.35,0L68.22,125.21a10.34,10.34,0,0,0-5.17,9V239.61a10.34,10.34,0,0,0,5.17,9l91.32,52.72a10.34,10.34,0,0,0,10.35,0l91.31-52.72A10.34,10.34,0,0,0,266.37,239.61Z"/><path class="cls-1" d="M266.37,164.67v74.94a10.35,10.35,0,0,0,5.18,9l91.31,52.72a10.34,10.34,0,0,0,10.35,0l91.31-52.72a10.34,10.34,0,0,0,5.17-9V134.17a10.34,10.34,0,0,0-5.17-9L368,69.5"/><path class="cls-1" d="M319.29,276.13,271.55,248.5a10.34,10.34,0,0,0-10.35,0l-91.31,52.72a10.34,10.34,0,0,0-5.18,9V415.63a10.33,10.33,0,0,0,5.18,8.95L261.2,477.3a10.34,10.34,0,0,0,10.35,0L368,421.6"/><circle class="cls-1" cx="347.63" cy="50.99" r="27.56"/><circle class="cls-1" cx="391.89" cy="407.8" r="27.56"/></svg>