<svg width="161" height="49" viewBox="0 0 161 49" fill="none" xmlns="http://www.w3.org/2000/svg">
<path fill-rule="evenodd" clip-rule="evenodd" d="M21.8031 37.0798L32.9307 30.6492V18.0081L21.8031 11.5775L10.6472 18.0093V30.648L21.8031 37.0798ZM23.1589 40.2799C22.323 40.763 21.2871 40.7636 20.4507 40.2813L8.47973 33.3796C7.66002 32.9071 7.15634 32.0422 7.15634 31.1074V17.5499C7.15634 16.615 7.66002 15.7502 8.47973 15.2776L20.4507 8.37592C21.2871 7.89374 22.323 7.89425 23.1589 8.37729L35.1005 15.2783C35.9189 15.7513 36.4215 16.6153 36.4215 17.5493V31.108C36.4215 32.0419 35.9189 32.906 35.1005 33.3789L23.1589 40.2799Z" fill="#FF8400"/>
<path fill-rule="evenodd" clip-rule="evenodd" d="M21.7943 28.7244L25.6578 26.5053V22.1525L21.7943 19.9334L17.9197 22.1537V26.5041L21.7943 28.7244ZM23.1439 31.9266C22.3112 32.405 21.2813 32.4055 20.448 31.928L15.7583 29.2407C14.9351 28.769 14.4288 27.9023 14.4288 26.9649V21.6929C14.4288 20.7556 14.9351 19.8888 15.7583 19.4171L20.448 16.7298C21.2813 16.2523 22.3112 16.2529 23.1439 16.7311L27.8215 19.4178C28.6433 19.8898 29.1486 20.7558 29.1486 21.6923V26.9655C29.1486 27.9019 28.6433 28.7679 27.8215 29.24L23.1439 31.9266Z" fill="#0095DA"/>
<path fill-rule="evenodd" clip-rule="evenodd" d="M21.8222 45.437L6.58647 36.6196C5.75552 36.1387 4.68576 36.4117 4.19706 37.2293C3.70837 38.047 3.98581 39.0997 4.81673 39.5806L20.4659 48.6373C21.3043 49.1225 22.3441 49.1219 23.1819 48.6359L42.3186 37.5346C43.1349 37.0611 43.6358 36.1983 43.6358 35.2659V20.7508C43.6358 19.8022 42.8544 19.0332 41.8904 19.0332C40.9264 19.0332 40.1449 19.8022 40.1449 20.7508V34.808L21.8222 45.437Z" fill="#0095DA"/>
<path fill-rule="evenodd" clip-rule="evenodd" d="M21.8136 3.56375L37.0493 12.3812C37.8803 12.8621 38.9501 12.5891 39.4387 11.7714C39.9275 10.9538 39.65 9.90111 38.8191 9.42025L23.1699 0.363503C22.3316 -0.121661 21.2917 -0.121133 20.4539 0.364883L1.31718 11.4662C0.500968 11.9397 6.65833e-07 12.8025 6.65833e-07 13.7349L0 28.25C0 29.1986 0.781462 29.9675 1.74544 29.9675C2.70942 29.9675 3.49088 29.1986 3.49088 28.25V14.1928L21.8136 3.56375Z" fill="#0095DA"/>
<path d="M55.9583 9.46875H59.8912V10.4535H57.0891V16.3422H55.9583V9.46875Z" fill="black"/>
<path d="M61.5107 9.46875H62.6115V13.3781L62.5015 14.7962H62.5318L63.2323 13.5259L65.9138 9.46875H66.9349V16.3422H65.8341V12.4328L65.9441 11.0148H65.9138L65.2133 12.2851L62.5318 16.3422H61.5107V9.46875Z" fill="black"/>
<path d="M69.1555 9.46875H73.6186V10.4535H70.286V12.1669H72.2374C72.8849 12.1669 73.3853 12.3573 73.7384 12.7381C74.0922 13.1123 74.269 13.6178 74.269 14.2546C74.269 14.8914 74.0922 15.4002 73.7384 15.7809C73.3853 16.1551 72.8849 16.3422 72.2374 16.3422H69.1555V9.46875ZM72.1675 15.3673C72.4544 15.3673 72.6778 15.2919 72.8378 15.1408C72.9984 14.9898 73.0781 14.7634 73.0781 14.4614V14.0478C73.0781 13.7458 72.9984 13.5193 72.8378 13.3683C72.6778 13.2173 72.4544 13.1418 72.1675 13.1418H70.286V15.3673H72.1675Z" fill="black"/>
<path d="M76.1061 16.3422V9.46875H79.1082C79.7552 9.46875 80.2556 9.65585 80.6093 10.03C80.9625 10.4042 81.1393 10.9065 81.1393 11.5367C81.1393 12.1669 80.9625 12.6691 80.6093 13.0433C80.2556 13.4175 79.7552 13.6046 79.1082 13.6046H77.2365V16.3422H76.1061ZM77.2365 12.6297H79.0378C79.3247 12.6297 79.5487 12.5576 79.7087 12.4131C79.8687 12.2621 79.949 12.0488 79.949 11.773V11.3004C79.949 11.0246 79.8687 10.8146 79.7087 10.6701C79.5487 10.5192 79.3247 10.4436 79.0378 10.4436H77.2365V12.6297Z" fill="black"/>
<path d="M82.8798 9.46875H83.9806V13.3781L83.8706 14.7962H83.9008L84.6013 13.5259L87.2829 9.46875H88.304V16.3422H87.2032V12.4328L87.3132 11.0148H87.2829L86.5824 12.2851L83.9008 16.3422H82.8798V9.46875Z" fill="black"/>
<path d="M89.7936 15.3575H90.5343C90.6675 15.1934 90.788 14.9997 90.8944 14.7765C91.0079 14.5467 91.1016 14.2808 91.1749 13.9788C91.2546 13.6703 91.3151 13.3191 91.3546 12.9252C91.3948 12.5247 91.4152 12.0684 91.4152 11.5564V9.46875H95.9684V15.3575H97.0087V17.8193H95.958V16.3422H90.8444V17.8193H89.7936V15.3575ZM94.8374 15.3575V10.4535H92.5055V11.6844C92.5055 12.1768 92.4892 12.6134 92.4554 12.9941C92.4293 13.3749 92.3856 13.713 92.3257 14.0084C92.2722 14.2973 92.2023 14.55 92.1157 14.7666C92.0354 14.9767 91.9423 15.1605 91.8352 15.3181V15.3575H94.8374Z" fill="black"/>
<path d="M102.96 13.3486H99.7976V16.3422H98.6666V9.46875H99.7976V12.3639H102.96V9.46875H104.09V16.3422H102.96V13.3486Z" fill="black"/>
<path d="M106.311 9.46875H107.442V12.1078H109.393C110.04 12.1078 110.541 12.2983 110.894 12.679C111.248 13.0532 111.425 13.5686 111.425 14.225C111.425 14.8815 111.248 15.4002 110.894 15.7809C110.541 16.1551 110.04 16.3422 109.393 16.3422H106.311V9.46875ZM109.323 15.3673C109.61 15.3673 109.834 15.2919 109.994 15.1408C110.154 14.9898 110.234 14.7634 110.234 14.4614V13.9887C110.234 13.6867 110.154 13.4602 109.994 13.3092C109.834 13.1582 109.61 13.0827 109.323 13.0827H107.442V15.3673H109.323ZM112.466 9.46875H113.596V16.3422H112.466V9.46875Z" fill="black"/>
<path d="M115.822 16.3422V9.46875H120.295V10.4535H116.953V12.3639H119.984V13.3486H116.953V15.3575H120.295V16.3422H115.822Z" fill="black"/>
<path d="M60.2513 25.2568H57.0891V28.2504H55.9583V21.377H57.0891V24.2721H60.2513V21.377H61.3824V28.2504H60.2513V25.2568Z" fill="black"/>
<path d="M67.9659 28.2504L67.3352 26.3893H64.7235L64.1131 28.2504H62.9623L65.3443 21.377H66.765L69.147 28.2504H67.9659ZM66.0546 22.4011H66.0046L64.994 25.4341H67.0554L66.0546 22.4011Z" fill="black"/>
<path d="M75.022 25.2568H71.8598V28.2504H70.7288V21.377H71.8598V24.2721H75.022V21.377H76.1524V28.2504H75.022V25.2568Z" fill="black"/>
<path d="M81.0751 28.3676C80.6213 28.3676 80.2076 28.2921 79.8341 28.1411C79.467 27.9836 79.1499 27.7571 78.8834 27.4616C78.6234 27.1597 78.4197 26.7888 78.2731 26.3489C78.1329 25.9025 78.0625 25.3904 78.0625 24.8127C78.0625 24.235 78.1329 23.7262 78.2731 23.2864C78.4197 22.84 78.6234 22.469 78.8834 22.1736C79.1499 21.8717 79.467 21.6452 79.8341 21.4941C80.2076 21.3366 80.6213 21.2578 81.0751 21.2578C81.5284 21.2578 81.9391 21.3366 82.3057 21.4941C82.6792 21.6452 82.9963 21.8717 83.2563 22.1736C83.5234 22.469 83.727 22.84 83.8667 23.2864C84.0139 23.7262 84.0872 24.235 84.0872 24.8127C84.0872 25.3904 84.0139 25.9025 83.8667 26.3489C83.727 26.7888 83.5234 27.1597 83.2563 27.4616C82.9963 27.7571 82.6792 27.9836 82.3057 28.1411C81.9391 28.2921 81.5284 28.3676 81.0751 28.3676ZM81.0751 27.373C81.3416 27.373 81.5854 27.3271 81.8053 27.2352C82.0322 27.1433 82.2225 27.012 82.3761 26.8413C82.5361 26.664 82.6594 26.4507 82.7461 26.2012C82.8328 25.9517 82.8764 25.6694 82.8764 25.3543V24.2711C82.8764 23.956 82.8328 23.6737 82.7461 23.4242C82.6594 23.1748 82.5361 22.9647 82.3761 22.794C82.2225 22.6167 82.0322 22.4822 81.8053 22.3903C81.5854 22.2984 81.3416 22.2524 81.0751 22.2524C80.8011 22.2524 80.5544 22.2984 80.3345 22.3903C80.114 22.4822 79.9243 22.6167 79.7637 22.794C79.6107 22.9647 79.4903 23.1748 79.4036 23.4242C79.3169 23.6737 79.2738 23.956 79.2738 24.2711V25.3543C79.2738 25.6694 79.3169 25.9517 79.4036 26.2012C79.4903 26.4507 79.6107 26.664 79.7637 26.8413C79.9243 27.012 80.114 27.1433 80.3345 27.2352C80.5544 27.3271 80.8011 27.373 81.0751 27.373Z" fill="black"/>
<path d="M88.6194 28.3676C87.7054 28.3676 86.988 28.0656 86.4679 27.4616C85.9477 26.8511 85.6871 25.9682 85.6871 24.8127C85.6871 24.235 85.754 23.7262 85.8872 23.2864C86.021 22.8466 86.2142 22.4756 86.4679 22.1736C86.7215 21.8717 87.0282 21.6452 87.3883 21.4941C87.7554 21.3366 88.1656 21.2578 88.6194 21.2578C89.2262 21.2578 89.7336 21.3891 90.1403 21.6517C90.5539 21.9143 90.8774 22.3016 91.1113 22.8137L90.1606 23.3258C90.0402 22.9975 89.8534 22.7382 89.6003 22.5478C89.3531 22.3509 89.0261 22.2524 88.6194 22.2524C88.0789 22.2524 87.6553 22.433 87.3487 22.794C87.0415 23.1551 86.8879 23.654 86.8879 24.2908V25.3346C86.8879 25.9714 87.0415 26.4704 87.3487 26.8314C87.6553 27.1925 88.0789 27.373 88.6194 27.373C89.0395 27.373 89.3798 27.268 89.6399 27.0579C89.907 26.8413 90.1036 26.5655 90.2305 26.2307L91.141 26.7723C90.9077 27.2713 90.5807 27.6619 90.1606 27.9442C89.74 28.2265 89.2262 28.3676 88.6194 28.3676Z" fill="black"/>
<path d="M95.4029 22.3617V28.2504H94.2724V22.3617H92.1907V21.377H97.4846V22.3617H95.4029Z" fill="black"/>
<path d="M99.0869 28.2504V21.377H102.089C102.737 21.377 103.237 21.5641 103.59 21.9383C103.944 22.3125 104.121 22.8147 104.121 23.4449C104.121 24.0751 103.944 24.5773 103.59 24.9515C103.237 25.3257 102.737 25.5128 102.089 25.5128H100.218V28.2504H99.0869ZM100.218 24.538H102.019C102.306 24.538 102.529 24.4658 102.689 24.3213C102.849 24.1703 102.93 23.957 102.93 23.6812V23.2086C102.93 22.9328 102.849 22.7228 102.689 22.5783C102.529 22.4274 102.306 22.3518 102.019 22.3518H100.218V24.538Z" fill="black"/>
<path d="M106.292 27.2657H107.393L107.653 26.6354L105.132 21.377H106.333L107.613 24.085L108.163 25.3553H108.204L108.674 24.0653L109.765 21.377H110.896L108.444 27.3346C108.371 27.5119 108.294 27.6596 108.214 27.7777C108.134 27.8959 108.04 27.9911 107.934 28.0633C107.827 28.129 107.7 28.1782 107.553 28.211C107.413 28.2373 107.243 28.2504 107.043 28.2504H106.292V27.2657Z" fill="black"/>
<path d="M112.431 21.377H113.561V24.2721H114.773L116.013 22.1254C116.167 21.8562 116.327 21.6658 116.494 21.5542C116.667 21.436 116.877 21.377 117.124 21.377H117.654V22.3617H117.024L116.024 24.0948C115.91 24.2852 115.803 24.4231 115.703 24.5084C115.61 24.5938 115.493 24.6594 115.353 24.7054V24.7546C115.513 24.7875 115.649 24.8432 115.763 24.922C115.876 25.0008 115.993 25.1452 116.113 25.3553L117.224 27.2657H117.835V28.2504H117.144C116.924 28.2504 116.734 28.1979 116.574 28.0928C116.413 27.9813 116.253 27.7876 116.093 27.5119L114.773 25.247H113.561V28.2504H112.431V21.377Z" fill="black"/>
<path d="M122.208 22.3617V28.2504H121.077V22.3617H118.995V21.377H124.289V22.3617H122.208Z" fill="black"/>
<path d="M126.459 27.2657H127.56L127.82 26.6354L125.299 21.377H126.5L127.78 24.085L128.331 25.3553H128.371L128.841 24.0653L129.932 21.377H131.063L128.611 27.3346C128.538 27.5119 128.461 27.6596 128.381 27.7777C128.301 27.8959 128.207 27.9911 128.101 28.0633C127.994 28.129 127.867 28.1782 127.72 28.211C127.581 28.2373 127.41 28.2504 127.21 28.2504H126.459V27.2657Z" fill="black"/>
<path d="M132.597 28.2504V21.377H135.599C136.246 21.377 136.747 21.5641 137.101 21.9383C137.454 22.3125 137.631 22.8147 137.631 23.4449C137.631 24.0751 137.454 24.5773 137.101 24.9515C136.747 25.3257 136.246 25.5128 135.599 25.5128H133.728V28.2504H132.597ZM133.728 24.538H135.529C135.816 24.538 136.04 24.4658 136.2 24.3213C136.36 24.1703 136.44 23.957 136.44 23.6812V23.2086C136.44 22.9328 136.36 22.7228 136.2 22.5783C136.04 22.4274 135.816 22.3518 135.529 22.3518H133.728V24.538Z" fill="black"/>
<path d="M143.665 25.2568H140.503V28.2504H139.371V21.377H140.503V24.2721H143.665V21.377H144.796V28.2504H143.665V25.2568Z" fill="black"/>
<path d="M147.016 21.377H148.146V24.016H150.098C150.745 24.016 151.246 24.2065 151.599 24.5872C151.952 24.9614 152.129 25.4768 152.129 26.1332C152.129 26.7897 151.952 27.3084 151.599 27.6891C151.246 28.0633 150.745 28.2504 150.098 28.2504H147.016V21.377ZM150.028 27.2755C150.315 27.2755 150.538 27.2001 150.698 27.049C150.859 26.8981 150.938 26.6716 150.938 26.3696V25.8969C150.938 25.5949 150.859 25.3684 150.698 25.2174C150.538 25.0664 150.315 24.9909 150.028 24.9909H148.146V27.2755H150.028ZM153.17 21.377H154.301V28.2504H153.17V21.377Z" fill="black"/>
<path d="M156.527 28.2504V21.377H161V22.3617H157.657V24.2721H160.69V25.2568H157.657V27.2657H161V28.2504H156.527Z" fill="black"/>
<path d="M61.3021 34.9001H61.2521L60.7017 36.0129L59.1703 38.7603L57.6395 36.0129L57.0891 34.9001H57.0391V40.1586H55.9583V33.2852H57.2993L59.1703 36.781H59.2308L61.1019 33.2852H62.3831V40.1586H61.3021V34.9001Z" fill="black"/>
<path d="M68.9721 40.1586L68.3414 38.2975H65.7296L65.1193 40.1586H63.9685L66.3504 33.2852H67.7712L70.1532 40.1586H68.9721ZM67.0608 34.3093H67.0108L66.0002 37.3423H68.0615L67.0608 34.3093Z" fill="black"/>
<path d="M73.6725 34.2699V40.1586H72.5415V34.2699H70.4598V33.2852H75.7537V34.2699H73.6725Z" fill="black"/>
<path d="M77.3569 40.1586V33.2852H81.8299V34.2699H78.4874V36.1803H81.5198V37.165H78.4874V39.1739H81.8299V40.1586H77.3569Z" fill="black"/>
<path d="M83.7889 40.1586V33.2852H86.7911C87.4386 33.2852 87.939 33.4723 88.2921 33.8465C88.6459 34.2207 88.8228 34.7229 88.8228 35.3531C88.8228 35.9833 88.6459 36.4855 88.2921 36.8597C87.939 37.2339 87.4386 37.421 86.7911 37.421H84.92V40.1586H83.7889ZM84.92 36.4462H86.7212C87.0081 36.4462 87.2315 36.374 87.3915 36.2295C87.5521 36.0785 87.6318 35.8652 87.6318 35.5894V35.1168C87.6318 34.841 87.5521 34.631 87.3915 34.4865C87.2315 34.3356 87.0081 34.26 86.7212 34.26H84.92V36.4462Z" fill="black"/>
<path d="M90.5635 33.2852H91.6643V37.1946L91.5543 38.6126H91.584L92.2845 37.3423L94.9666 33.2852H95.9871V40.1586H94.8864V36.2492L94.9969 34.8312H94.9666L94.2661 36.1015L91.584 40.1586H90.5635V33.2852Z" fill="black"/>
<path d="M102.571 40.1586L101.94 38.2975H99.3282L98.7179 40.1586H97.5671L99.9484 33.2852H101.37L103.751 40.1586H102.571ZM100.659 34.3093H100.609L99.5982 37.3423H101.66L100.659 34.3093Z" fill="black"/>
<path d="M104.662 39.1739H105.433C105.566 39.0426 105.683 38.8818 105.783 38.6914C105.883 38.501 105.963 38.2581 106.023 37.9626C106.09 37.6672 106.14 37.3062 106.174 36.8794C106.207 36.4462 106.224 35.921 106.224 35.3039V33.2852H110.737V40.1586H109.606V34.2699H107.314V35.4319C107.314 36.095 107.291 36.6661 107.244 37.1453C107.204 37.618 107.144 38.0217 107.064 38.3565C106.984 38.6914 106.884 38.9671 106.763 39.1837C106.65 39.4004 106.524 39.5777 106.384 39.7155C106.21 39.8796 106.023 40.0011 105.823 40.0799C105.623 40.1521 105.379 40.1881 105.093 40.1881H104.662V39.1739Z" fill="black"/>
<path d="M112.958 33.2852H114.089V35.9242H116.04C116.688 35.9242 117.188 36.1147 117.541 36.4954C117.895 36.8696 118.072 37.385 118.072 38.0414C118.072 38.6979 117.895 39.2166 117.541 39.5973C117.188 39.9715 116.688 40.1586 116.04 40.1586H112.958V33.2852ZM115.97 39.1837C116.257 39.1837 116.481 39.1083 116.641 38.9572C116.801 38.8063 116.881 38.5798 116.881 38.2778V37.8051C116.881 37.5031 116.801 37.2767 116.641 37.1256C116.481 36.9746 116.257 36.8991 115.97 36.8991H114.089V39.1837H115.97ZM119.113 33.2852H120.243V40.1586H119.113V33.2852Z" fill="black"/>
</svg>
