<svg width="26" height="40" viewBox="0 0 26 40" fill="none" xmlns="http://www.w3.org/2000/svg">
<path d="M20.1334 16.5576L21.0917 18.8057L16.5761 21.5204L15.0925 19.7605" fill="#FFAB00"/>
<path d="M5.67386 5.73336L4.94702 5.03274C4.61647 4.52005 4.77746 3.84752 5.30971 3.52924L9.67632 0.903877C10.2078 0.584167 10.9055 0.741845 11.2368 1.25238C11.5681 1.76219 11.601 2.75588 11.601 2.75588" fill="#EBEEF0"/>
<path d="M8.00631 11.418C3.70802 13.5292 0.765198 17.8345 0.765198 22.8044C0.765198 28.789 5.03396 33.8122 10.7968 35.199C10.7852 35.1025 10.7788 35.0046 10.7788 34.9052C10.7788 33.4924 11.9654 32.3461 13.4318 32.3461C14.7809 32.3461 15.8917 33.3182 16.0605 34.574C16.0605 34.574 25.2293 30.6669 24.7721 30.6669C22.986 30.6669 14.2244 30.6669 14.0205 30.6669C9.51526 30.6669 5.86202 27.1472 5.86202 22.8044C5.86202 19.5965 7.85467 16.8387 10.7101 15.616" fill="#AEBCC4"/>
<path d="M20.2173 14.7077C20.6162 15.322 20.4198 16.1292 19.7826 16.5137L15.0637 19.3493C14.4265 19.7324 13.5884 19.5452 13.191 18.931L6.01148 7.60499C5.61445 6.99148 5.80868 6.18285 6.44551 5.79905L11.164 2.9634C11.8015 2.58034 12.6408 2.76755 13.0382 3.38249L20.2173 14.7077Z" fill="#78909C"/>
<path d="M24.734 38.7394L16.065 35.1895C15.9156 36.4625 14.7966 37.4519 13.4344 37.4519C12.1481 37.4519 11.0757 36.5662 10.8371 35.3925L7.49831 38.3549C6.93543 38.8553 7.1009 39.2636 7.86584 39.2636H24.6235C25.3899 39.2636 25.4399 39.0274 24.734 38.7394Z" fill="#AEBCC4"/>
<path d="M15.663 34.8996C15.663 36.0813 14.6695 37.0389 13.4421 37.0389C12.2182 37.0389 11.2254 36.0813 11.2254 34.8996C11.2254 33.7194 12.2182 32.7617 13.4421 32.7617C14.6695 32.7617 15.663 33.7194 15.663 34.8996Z" fill="#FFAB00"/>
<path d="M12.2175 28.3028C12.2175 28.7104 12.56 29.0401 12.9824 29.0401H24.5757C24.9977 29.0401 25.3406 28.7104 25.3406 28.3028C25.3406 27.8953 24.9977 27.5654 24.5757 27.5654H12.9824C12.56 27.5654 12.2175 27.8953 12.2175 28.3028Z" fill="#43525B"/>
<path d="M25.0328 38.0601L17.2497 34.8731C25.7006 31.2706 25.6961 31.2468 25.537 30.5196C25.4623 30.179 25.1336 29.9291 24.7721 29.9291H14.0204C9.9436 29.9291 6.62689 26.7327 6.62689 22.804C6.62689 20.1002 8.2281 17.6476 10.7194 16.4451L12.5413 19.3189C12.932 19.9223 13.6062 20.2831 14.3454 20.2831C14.4073 20.2831 14.4671 20.2636 14.5284 20.2586L15.982 21.9824C16.1322 22.1603 16.3526 22.2546 16.5759 22.2546C16.7148 22.2546 16.8553 22.2186 16.9808 22.143L21.4965 19.4283C21.8132 19.2382 21.9409 18.8551 21.799 18.5225L20.8989 16.4105C21.2731 15.7768 21.2947 14.9761 20.8697 14.3209L13.6869 2.99057C13.3716 2.50237 12.8681 2.18482 12.2982 2.07537C12.2358 1.6894 12.1178 1.21704 11.8851 0.859172C11.3304 0.00443675 10.1569 -0.256216 9.27129 0.275902L4.90615 2.90057C4.47475 3.15835 4.17408 3.56303 4.05942 4.03899C3.94512 4.51424 4.02953 5.0046 4.29733 5.42008C4.32797 5.46761 4.36458 5.51226 4.40603 5.55187L5.13287 6.25248C5.14035 6.25969 5.15042 6.26186 5.1579 6.26833C4.96628 6.82567 5.01334 7.45429 5.35809 7.98714L7.25363 10.9769C2.77045 13.3581 0.000183105 17.8456 0.000183105 22.804C0.000183105 28.6373 3.84391 33.7433 9.48083 35.5924L6.97947 37.8117C6.27802 38.4353 6.36019 38.9897 6.47151 39.2648C6.56153 39.4858 6.87675 40 7.8658 40H24.6234C25.4197 40 25.8769 39.7494 25.9807 39.2555C26.0846 38.7608 25.7656 38.3582 25.0328 38.0601ZM11.5437 34.9048C11.5437 33.9003 12.3908 33.083 13.4318 33.083C14.3767 33.083 15.1805 33.7642 15.3015 34.6686C15.312 34.7471 15.3515 34.8155 15.3867 34.8853C15.3523 34.9566 15.3142 35.0258 15.3045 35.1057C15.1977 36.0224 14.3932 36.7136 13.4344 36.7136C12.5368 36.7136 11.7603 36.0979 11.5878 35.2497C11.5814 35.218 11.5665 35.1899 11.556 35.1597C11.5553 35.1446 11.5583 35.1295 11.5564 35.1136C11.5482 35.0452 11.5437 34.9753 11.5437 34.9048ZM16.744 20.5473L15.9933 19.6566L19.6835 17.4395L20.1384 18.5066L16.744 20.5473ZM5.71442 4.15276L10.081 1.52739C10.2532 1.42587 10.4803 1.47483 10.5883 1.64187C10.6802 1.78302 10.7451 2.05736 10.787 2.32306C10.778 2.32883 10.7676 2.33026 10.759 2.33531L6.12303 5.12125L5.56725 4.58552C5.53886 4.51783 5.53253 4.44439 5.5497 4.3724C5.5624 4.31981 5.60049 4.22046 5.71442 4.15276ZM6.84949 6.42242L11.568 3.58679C11.6628 3.5299 11.7715 3.49966 11.8821 3.49966C12.0898 3.49966 12.2791 3.60046 12.3848 3.76465L19.5684 15.0964C19.7418 15.3635 19.6558 15.7178 19.3779 15.8856L14.6583 18.7212C14.3857 18.8854 14.0054 18.7947 13.8433 18.5441L6.66013 7.21233C6.48644 6.94448 6.57198 6.58948 6.84949 6.42242ZM1.53006 22.804C1.53006 18.3648 4.02243 14.3489 8.05106 12.2355L9.91223 15.1713C6.97088 16.6431 5.09701 19.5824 5.09701 22.804C5.09701 27.5456 9.09987 31.4038 14.0204 31.4038H21.5114C20.0906 32.0324 18.3015 32.8079 16.549 33.5583C16.0104 32.4011 14.8033 31.6083 13.4318 31.6083C11.7857 31.6083 10.4075 32.7366 10.0852 34.2329C5.00363 32.6171 1.53006 28.0389 1.53006 22.804ZM8.43466 38.5253L10.5472 36.651C11.1579 37.5835 12.2369 38.1883 13.4344 38.1883C14.8316 38.1883 16.047 37.3783 16.5714 36.1973L22.2569 38.5253H8.43466Z" fill="#43525B"/>
<path d="M13.5386 10.2365L12.2381 11.0127L12.8869 12.0229L14.1875 11.2467L13.5386 10.2365Z" fill="#43525B"/>
<path d="M12.241 8.21289L10.9397 8.98913L11.5885 10.0001L12.8898 9.22387L12.241 8.21289Z" fill="#43525B"/>
<path d="M15.4854 13.2698L14.8377 12.2588L13.5353 13.0336L14.1833 14.0446L15.4854 13.2698Z" fill="#43525B"/>
</svg>
