<svg id="Layer_6" data-name="Layer 6" xmlns="http://www.w3.org/2000/svg" xmlns:xlink="http://www.w3.org/1999/xlink" viewBox="0 0 512 512"><defs><style>.cls-1,.cls-7,.cls-8{fill:none;}.cls-2{fill:#f1730d;}.cls-2,.cls-4,.cls-5,.cls-7,.cls-8{stroke:#213e58;stroke-miterlimit:10;}.cls-2,.cls-4,.cls-5{stroke-width:10px;}.cls-3{clip-path:url(#clip-path);}.cls-4{fill:#77acf0;}.cls-5{fill:#4c94f0;}.cls-6{fill:#213e58;}.cls-7{stroke-width:7px;}.cls-8{stroke-width:16px;}</style><clipPath id="clip-path"><ellipse class="cls-1" cx="254" cy="174.44" rx="92.59" ry="114.99"/></clipPath></defs><rect class="cls-2" x="211.49" y="269.66" width="85.01" height="90.5"/><ellipse class="cls-2" cx="254" cy="174.44" rx="92.59" ry="114.99"/><g class="cls-3"><path class="cls-4" d="M233.68,153.46c44.62,1.34,78.85-15.42,96.21-24.16C361.3,113.48,391.75,98.14,401.5,66c1.08-3.55,7.85-25.81-.87-45.25-24.44-54.47-160.92-65.45-261-17.57C107.81,18.45,51.4,45.45,42.13,99.86,33.33,151.52,70,210.24,99.69,210.57c29,.33,37.5-55.35,85.66-62.82C203.59,144.92,204.43,152.58,233.68,153.46Z"/></g><path class="cls-5" d="M349.14,205l34.28-43.4q.4,14,.45,28.15.09,23.44-.79,46.19a17.81,17.81,0,0,1-17.86,17.16h0a17.81,17.81,0,0,1-17.73-18.4q.4-12.85.39-26A5.9,5.9,0,0,1,349.14,205Z"/><path class="cls-5" d="M254,11.67c-72.38,0-131.06,72.87-131.06,162.77q0,5.17.26,10.26a17.4,17.4,0,0,0,17.42,16.43h0a17.42,17.42,0,0,0,17.44-17.61c0-.64,0-1.29,0-1.93,0-65.82,43-119.18,96-119.18s96,53.36,96,119.18q0,6.66-.59,13.15a5.88,5.88,0,0,0,5.86,6.39h28.06a201.65,201.65,0,0,0,1.77-26.69C385.06,84.54,326.38,11.67,254,11.67Z"/><path class="cls-6" d="M365.22,258H275.53a5,5,0,0,1-4.95-4.94h0a5,5,0,0,1,4.95-4.94h89.69Z"/><line class="cls-7" x1="124.93" y1="146.08" x2="161.41" y2="150.21"/><line class="cls-7" x1="381.25" y1="135.37" x2="343.87" y2="139.73"/><path class="cls-4" d="M307.71,325.68h-12a15.93,15.93,0,0,0-15.93,15.92h0a23.18,23.18,0,0,1-23.17,23.18h0a23.18,23.18,0,0,1-23.18-23.18h0a15.92,15.92,0,0,0-15.92-15.92H200.29A127.85,127.85,0,0,0,72.45,453.52v44.81h363.1V453.52A127.85,127.85,0,0,0,307.71,325.68Z"/><polygon class="cls-5" points="296.5 498.33 256.64 498.33 211.5 498.33 242.69 356.43 270.58 356.43 296.5 498.33"/><rect class="cls-4" x="194.18" y="313.03" width="39.98" height="59.3" rx="7.83" transform="translate(-175.82 236.83) rotate(-42.81)"/><rect class="cls-4" x="273.84" y="313.91" width="39.98" height="59.3" rx="7.83" transform="translate(311.74 -108.16) rotate(42.81)"/><line class="cls-8" x1="329.13" y1="427.38" x2="389.75" y2="427.38"/></svg>