<svg id="Layer_11" data-name="Layer 11" xmlns="http://www.w3.org/2000/svg" viewBox="0 0 512 512"><defs><style>.cls-1{fill:#213e58;}.cls-2{fill:#1b3954;}.cls-3{fill:#77acf0;}</style></defs><path class="cls-1" d="M158,400.6H38a6.82,6.82,0,0,1-5.07-2.27A7.35,7.35,0,0,1,31.08,393l5.58-84.24a7.14,7.14,0,0,1,4.47-6.21,6.75,6.75,0,0,1,7.32,1.62,68.74,68.74,0,0,0,99,0,6.77,6.77,0,0,1,9.8,0,7.33,7.33,0,0,1,0,10.12A82.15,82.15,0,0,1,49.57,323.7l-4.15,62.58H150.5l-3.09-43.18A6.93,6.93,0,1,1,161.23,342l3.64,50.87a7.35,7.35,0,0,1-1.83,5.4A6.82,6.82,0,0,1,158,400.6Z"/><path class="cls-2" d="M98,297.21c-23.86,0-43.27-20.07-43.27-44.73A44.63,44.63,0,0,1,78.76,212.4,41.63,41.63,0,0,1,98,207.76c23.86,0,43.28,20.07,43.28,44.73a45.49,45.49,0,0,1-4.48,19.86C129.39,287.69,114.52,297.21,98,297.21Zm0-75.13a28.3,28.3,0,0,0-13,3.15,30.35,30.35,0,0,0-16.37,27.25c0,16.76,13.19,30.41,29.42,30.41A29.24,29.24,0,0,0,124.36,266a30.91,30.91,0,0,0,3-13.5C127.4,235.71,114.19,222.08,98,222.08Z"/><path class="cls-1" d="M98,339.53A82.3,82.3,0,0,1,38.68,314.3a87.83,87.83,0,0,1-24.93-61.81c0-48,37.78-87.05,84.21-87.05a81.52,81.52,0,0,1,27.76,4.85c24,8.65,43.37,28.66,51.77,53.51a89.52,89.52,0,0,1,4.69,28.69,87.83,87.83,0,0,1-25,61.82A82.24,82.24,0,0,1,98,339.53Zm0-159.77c-38.79,0-70.35,32.63-70.35,72.73a73.37,73.37,0,0,0,20.83,51.63,68.72,68.72,0,0,0,99,0,73.43,73.43,0,0,0,20.85-51.66,74.81,74.81,0,0,0-3.92-24c-7-20.75-23.18-37.46-43.25-44.7A68,68,0,0,0,98,179.76Z"/><path class="cls-3" d="M98,297.21c-23.86,0-43.27-20.07-43.27-44.73A44.63,44.63,0,0,1,78.76,212.4,41.63,41.63,0,0,1,98,207.76c23.86,0,43.28,20.07,43.28,44.73a45.49,45.49,0,0,1-4.48,19.86C129.39,287.69,114.52,297.21,98,297.21Zm0-75.13a28.3,28.3,0,0,0-13,3.15,30.35,30.35,0,0,0-16.37,27.25c0,16.76,13.19,30.41,29.42,30.41A29.24,29.24,0,0,0,124.36,266a30.91,30.91,0,0,0,3-13.5C127.4,235.71,114.19,222.08,98,222.08Z"/><path class="cls-1" d="M171,233.29a7.26,7.26,0,0,1-1.38-.14,7,7,0,0,1-5.16-4.66c-7-20.75-23.17-37.47-43.24-44.7a7.08,7.08,0,0,1-4.51-5.33,7.33,7.33,0,0,1,2.13-6.73l74.27-69.82a6.78,6.78,0,0,1,9.79.48,7.34,7.34,0,0,1-.46,10.12l-66.31,62.33a86.83,86.83,0,0,1,37,38.25l75.66-86a57,57,0,0,1-33.23-41.54,7.16,7.16,0,0,1,5.37-8.47,7,7,0,0,1,8.2,5.56c3.43,17.07,16.88,30.65,33.46,33.81a7,7,0,0,1,5.31,4.75,7.33,7.33,0,0,1-1.43,7.11L176.11,231A6.92,6.92,0,0,1,171,233.29Z"/><path class="cls-2" d="M255,98.18a6.76,6.76,0,0,1-4.54-1.76l-.94-.84a7.24,7.24,0,0,1-2.38-5.13,7.35,7.35,0,0,1,2-5.3A6.93,6.93,0,0,1,254.11,83h0a6.88,6.88,0,0,1,4.92,2.07c.16.16.32.31.47.47l.33.32a7.35,7.35,0,0,1,.31,10A6.84,6.84,0,0,1,255,98.18Z"/><path class="cls-1" d="M270.2,131.51a54,54,0,0,1-10.2-1c-22.38-4.25-39.86-21.91-44.5-45a60.66,60.66,0,0,1-1.17-11.82C214.33,41.94,239.39,16,270.2,16a7,7,0,0,1,6.92,7.16,7,7,0,0,1-6.92,7.16c-23.17,0-42,19.48-42,43.41a44.77,44.77,0,0,0,.88,8.9c3.43,17.06,16.88,30.65,33.46,33.8a41,41,0,0,0,23-2.25,43,43,0,0,0,23.07-22.81,44.59,44.59,0,0,0-5.82-45.07,7.34,7.34,0,0,1,1-10.08,6.78,6.78,0,0,1,9.75,1,59.33,59.33,0,0,1,7.75,59.94,57.12,57.12,0,0,1-30.68,30.32A54,54,0,0,1,270.2,131.51Z"/><path class="cls-1" d="M291.92,35.61a7.16,7.16,0,0,1,0-14.32h0a7.16,7.16,0,0,1,0,14.32Z"/><path class="cls-2" d="M270.2,104.21a28.88,28.88,0,0,1-19.74-7.84l-.89-.8a7.24,7.24,0,0,1-1.07-1.21,31.17,31.17,0,0,1,.87-42.09l.28-.27a28.82,28.82,0,0,1,20.55-8.64c13,0,24.36,8.65,28.17,21.53a31.31,31.31,0,0,1,1.29,8.9A30.8,30.8,0,0,1,291,95.31,28.93,28.93,0,0,1,270.2,104.21ZM259.37,85.4l.24.22.09.09a15.26,15.26,0,0,0,21.53-.54,16.33,16.33,0,0,0,4.55-11.4,16.79,16.79,0,0,0-.67-4.7A15.59,15.59,0,0,0,270.2,57.66a15.27,15.27,0,0,0-11,4.73l-.19.18a16.51,16.51,0,0,0,.12,22.51C259.19,85.2,259.28,85.3,259.37,85.4Z"/><path class="cls-3" d="M270.2,104.21a28.92,28.92,0,0,1-19.8-7.89l-.15-.15-.26-.26c-.24-.24-.48-.47-.72-.72a31.17,31.17,0,0,1,.1-42.93l.28-.27a28.82,28.82,0,0,1,20.55-8.64c13,0,24.36,8.65,28.17,21.53a31.31,31.31,0,0,1,1.29,8.9A30.8,30.8,0,0,1,291,95.3,28.9,28.9,0,0,1,270.2,104.21ZM259.76,85.76a15.25,15.25,0,0,0,21.47-.59,16.33,16.33,0,0,0,4.55-11.4,16.74,16.74,0,0,0-.67-4.7A15.59,15.59,0,0,0,270.2,57.66a15.27,15.27,0,0,0-11,4.73l-.19.18a16.51,16.51,0,0,0,.12,22.51l.43.43Z"/><path class="cls-1" d="M360.11,193.31a6.81,6.81,0,0,1-4.56-1.76l-72.08-65.28a7.3,7.3,0,0,1-2.26-6.62,7.1,7.1,0,0,1,4.31-5.43,43,43,0,0,0,23.06-22.8,7,7,0,0,1,5.3-4.18,6.8,6.8,0,0,1,6.25,2.36l62.39,73.6a7.36,7.36,0,0,1,1.5,6.47,7.08,7.08,0,0,1-4.28,5,22.37,22.37,0,0,0-13.08,13.89,7,7,0,0,1-4.77,4.58A8.24,8.24,0,0,1,360.11,193.31Zm-59.86-70.89L358,174.74a36.09,36.09,0,0,1,8.37-8.84l-50.28-59.29A57.28,57.28,0,0,1,300.25,122.42Z"/><path class="cls-1" d="M339.8,290.61H311.18a7,7,0,0,1-6.93-7.16V222.34a7.2,7.2,0,0,1,3.64-6.3l47.35-26.45a6.71,6.71,0,0,1,6.84.15,7.2,7.2,0,0,1,3.38,6.15,22.83,22.83,0,0,0,10.73,19.62,7.26,7.26,0,0,1-.27,12.43l-29.19,16.31v39.19A7.06,7.06,0,0,1,339.8,290.61Zm-21.69-14.32h14.76V240a7.21,7.21,0,0,1,3.64-6.3l23.95-13.38A38,38,0,0,1,353.25,207L318.11,226.6Z"/><path class="cls-1" d="M463.88,290.59H435.26a7,7,0,0,1-6.93-7.16V244.24L399.16,228a7.28,7.28,0,0,1-.28-12.44,22.86,22.86,0,0,0,10.72-19.58,7.24,7.24,0,0,1,3.38-6.18,6.71,6.71,0,0,1,6.84-.17L467.17,216a7.19,7.19,0,0,1,3.63,6.3v61.11A7,7,0,0,1,463.88,290.59Zm-21.69-14.32H457V226.59L421.82,207a37.92,37.92,0,0,1-7.2,13.33l23.94,13.37a7.21,7.21,0,0,1,3.63,6.3Z"/><path class="cls-3" d="M387.55,233.06a35.13,35.13,0,0,1-18.49-5.29,37.6,37.6,0,0,1-17.45-31.84,38.88,38.88,0,0,1,2-12.11,36.5,36.5,0,0,1,21.31-22.63,34.33,34.33,0,0,1,12.67-2.4c19.76,0,35.87,16.64,35.92,37.07h0v.06A37.63,37.63,0,0,1,406,227.78,35.16,35.16,0,0,1,387.55,233.06Zm0-59.95a21,21,0,0,0-7.77,1.47,22.34,22.34,0,0,0-13.1,13.9,23.86,23.86,0,0,0-1.21,7.41,22.78,22.78,0,0,0,10.73,19.59,21.52,21.52,0,0,0,22.71,0,22.82,22.82,0,0,0,10.71-19.57l6.92-.06h-6.92C409.59,183.33,399.69,173.11,387.55,173.11Z"/><path class="cls-3" d="M435.27,359.49H339.81a7,7,0,0,1-6.93-7.16v-89a7,7,0,0,1,6.93-7.16h95.46a7,7,0,0,1,6.92,7.16v89A7,7,0,0,1,435.27,359.49Zm-88.55-14.32h81.61V270.53H346.72Z"/><path class="cls-1" d="M288.34,404.44a6.91,6.91,0,0,1-1.36-.15,7,7,0,0,1-1.3-.41,7.52,7.52,0,0,1-1.18-.65,7.68,7.68,0,0,1-1.06-.89,7.29,7.29,0,0,1-1.89-6.47,7.09,7.09,0,0,1,1-2.57,7,7,0,0,1,.86-1.09,6,6,0,0,1,1.06-.89,6.84,6.84,0,0,1,1.18-.66,7,7,0,0,1,1.3-.41,6.83,6.83,0,0,1,6.25,2,6,6,0,0,1,.86,1.09,6.87,6.87,0,0,1,.65,1.23,7.66,7.66,0,0,1,.4,1.34,8.18,8.18,0,0,1,.12,1.4,7.31,7.31,0,0,1-2,5.07A6.85,6.85,0,0,1,288.34,404.44Z"/><path class="cls-1" d="M486.75,473H288.34a7,7,0,0,1-6.93-7.16V418.57a6.93,6.93,0,1,1,13.85,0v40.07H479.81V359.45H295.26V376a6.93,6.93,0,1,1-13.85,0V352.29a7,7,0,0,1,6.93-7.16h198.4a7,7,0,0,1,6.93,7.16V465.8A7,7,0,0,1,486.75,473Z"/><path class="cls-1" d="M175.25,473H20.68a7,7,0,0,1-6.93-7.16V393.47a7,7,0,0,1,6.93-7.16H175.25a7,7,0,0,1,6.93,7.16v72.37A7,7,0,0,1,175.25,473ZM27.61,458.68H168.33V400.63H27.61Z"/></svg>