<svg width="40" height="40" viewBox="0 0 40 40" fill="none" xmlns="http://www.w3.org/2000/svg">
<path d="M12.0187 33.6634H2.02074C1.86072 33.6634 1.70812 33.5918 1.59842 33.4646C1.48954 33.3375 1.43345 33.1674 1.44417 32.9936L1.90938 25.6191C1.92505 25.3747 2.07023 25.1616 2.28139 25.0756C2.49255 24.9888 2.73093 25.0443 2.89177 25.2171C3.99624 26.4071 5.46199 27.0616 7.0193 27.0616C8.57578 27.0616 10.0415 26.4071 11.1468 25.218C11.3737 24.9745 11.7391 24.9762 11.9634 25.2216C12.1878 25.4678 12.1861 25.8645 11.9601 26.108C10.6371 27.5317 8.88262 28.3152 7.02012 28.3152C5.5552 28.3152 4.15791 27.8308 2.98498 26.9318L2.63937 32.4098H11.3976L11.1402 28.6295C11.1163 28.2839 11.3555 27.9839 11.6731 27.9579C11.989 27.9329 12.2678 28.1916 12.2917 28.5364L12.5952 32.9892C12.6068 33.1629 12.5515 33.3339 12.4426 33.4619C12.3321 33.5909 12.1795 33.6634 12.0187 33.6634Z" fill="#1B3954"/>
<path d="M7.01964 24.6125C5.03094 24.6125 3.4126 22.8557 3.4126 20.6969C3.4126 19.1989 4.18053 17.8549 5.41779 17.1887C5.91765 16.9192 6.45627 16.7822 7.01964 16.7822C9.00834 16.7822 10.6267 18.539 10.6267 20.6978C10.6267 21.3085 10.5013 21.8941 10.253 22.4367C9.6377 23.7789 8.39878 24.6125 7.01964 24.6125ZM7.01964 18.0358C6.63692 18.0358 6.27068 18.1289 5.93167 18.3116C5.08951 18.7646 4.56738 19.6788 4.56738 20.6969C4.56738 22.1645 5.6669 23.3589 7.01964 23.3589C7.95749 23.3589 8.79966 22.7921 9.21868 21.8788C9.38695 21.5108 9.47191 21.1133 9.47191 20.6969C9.47191 19.2294 8.37156 18.0358 7.01964 18.0358Z" fill="#1B3954"/>
<path d="M7.01861 28.3169C5.15528 28.3169 3.40001 27.5326 2.07778 26.1089C0.737412 24.6682 0 22.7466 0 20.698C0 16.4968 3.14843 13.0781 7.01861 13.0781C7.81046 13.0781 8.58911 13.2205 9.3323 13.5025C11.3342 14.2601 12.9468 16.0115 13.6471 18.1864C13.9061 18.9931 14.038 19.8384 14.038 20.698C14.038 22.7466 13.2998 24.6691 11.9586 26.1098C10.6364 27.5335 8.88193 28.3169 7.01861 28.3169ZM7.01861 14.3317C3.78521 14.3317 1.15478 17.188 1.15478 20.698C1.15478 22.4091 1.77177 24.0145 2.89108 25.2179C3.99555 26.4079 5.4613 27.0634 7.01861 27.0634C8.57509 27.0634 10.0408 26.4088 11.1461 25.2197C12.2663 24.0154 12.8833 22.41 12.8833 20.698C12.8833 19.979 12.7735 19.2725 12.5566 18.5992C11.9718 16.7824 10.6248 15.3193 8.95204 14.6863C8.33176 14.4508 7.68096 14.3317 7.01861 14.3317Z" fill="#1B3954"/>
<path d="M7.01964 24.6125C5.03094 24.6125 3.4126 22.8557 3.4126 20.6969C3.4126 19.1989 4.18053 17.8549 5.41779 17.1887C5.91765 16.9192 6.45627 16.7822 7.01964 16.7822C9.00834 16.7822 10.6267 18.539 10.6267 20.6978C10.6267 21.3085 10.5013 21.8941 10.253 22.4367C9.6377 23.7789 8.39878 24.6125 7.01964 24.6125ZM7.01964 18.0358C6.63692 18.0358 6.27068 18.1289 5.93167 18.3116C5.08951 18.7646 4.56738 19.6788 4.56738 20.6969C4.56738 22.1645 5.6669 23.3589 7.01964 23.3589C7.95749 23.3589 8.79966 22.7921 9.21868 21.8788C9.38695 21.5108 9.47191 21.1133 9.47191 20.6969C9.47191 19.2294 8.37156 18.0358 7.01964 18.0358Z" fill="#16ADE1"/>
<path d="M13.1033 19.0172C13.0654 19.0172 13.0266 19.0128 12.9879 19.0047C12.7882 18.9608 12.6249 18.8059 12.5581 18.5973C11.9733 16.7805 10.6263 15.3174 8.95354 14.6844C8.76135 14.6119 8.61865 14.4346 8.57824 14.2179C8.53782 14.0012 8.60463 13.7774 8.75558 13.6287L14.946 7.51672C15.1819 7.28391 15.5473 7.30272 15.7618 7.5588C15.9763 7.81488 15.9589 8.21155 15.723 8.44435L10.1966 13.9009C11.5163 14.6325 12.606 15.8153 13.2807 17.2488L19.5866 9.72298C18.1827 9.09441 17.136 7.75131 16.8168 6.08676C16.7516 5.74741 16.9521 5.41611 17.2647 5.34537C17.5765 5.27464 17.8825 5.49222 17.9476 5.83157C18.2339 7.326 19.3548 8.51509 20.7364 8.79087C20.9427 8.83206 21.1118 8.99144 21.1794 9.20723C21.247 9.42302 21.2008 9.6612 21.0598 9.82953L13.5323 18.8131C13.4192 18.9447 13.2642 19.0172 13.1033 19.0172Z" fill="#1B3954"/>
<path d="M20.111 7.1901C19.9765 7.1901 19.8413 7.13906 19.7324 7.03609L19.654 6.96267C19.5336 6.84895 19.4618 6.68599 19.4561 6.51318C19.4503 6.34037 19.5105 6.17203 19.6227 6.04936C19.7307 5.93117 19.8792 5.86222 20.0335 5.86133C20.0343 5.86133 20.0343 5.86133 20.0351 5.86133C20.1877 5.86133 20.3362 5.9249 20.4451 6.0422C20.4582 6.05653 20.4714 6.06996 20.4846 6.08339L20.5119 6.11204C20.7379 6.34753 20.7486 6.73613 20.5374 6.98685C20.4228 7.12205 20.2677 7.1901 20.111 7.1901Z" fill="#1B3954"/>
<path d="M21.374 10.1082C21.087 10.1082 20.8008 10.0795 20.5244 10.024C18.6586 9.65151 17.202 8.10605 16.8151 6.08782C16.7508 5.74936 16.7178 5.40194 16.7178 5.05363C16.7178 2.26715 18.8063 0 21.374 0C21.6932 0 21.9514 0.28026 21.9514 0.62678C21.9514 0.973299 21.6932 1.25356 21.374 1.25356C19.4431 1.25356 17.8726 2.9584 17.8726 5.05363C17.8726 5.31599 17.8973 5.57834 17.946 5.83263C18.2322 7.32616 19.3532 8.51525 20.7348 8.79103C20.9426 8.83312 21.1579 8.8546 21.374 8.8546C21.8153 8.8546 22.2442 8.76686 22.6501 8.59404C23.5013 8.2323 24.2024 7.50524 24.5736 6.5973C24.774 6.10931 24.8755 5.58998 24.8755 5.05274C24.8755 4.17972 24.5959 3.3273 24.0886 2.65217C23.8873 2.38445 23.9236 1.98958 24.1711 1.7702C24.4177 1.55173 24.7815 1.59112 24.9835 1.85974C25.6591 2.75783 26.0311 3.8923 26.0311 5.05274C26.0311 5.76727 25.8958 6.45762 25.6294 7.10679C25.1361 8.31289 24.2041 9.27992 23.0724 9.76075C22.5313 9.99176 21.9597 10.1082 21.374 10.1082Z" fill="#1B3954"/>
<path d="M23.1849 1.71352C22.8657 1.71352 22.6075 1.43326 22.6075 1.08674C22.6075 0.740221 22.8657 0.459961 23.1849 0.459961H23.1858C23.505 0.459961 23.7632 0.740221 23.7632 1.08674C23.7632 1.43326 23.5042 1.71352 23.1849 1.71352Z" fill="#1B3954"/>
<path d="M21.3748 7.71833C20.766 7.71833 20.1812 7.47478 19.7292 7.03156L19.655 6.96172C19.6212 6.93038 19.5915 6.89457 19.5659 6.85606C19.1485 6.3627 18.92 5.72607 18.92 5.05452C18.92 4.34357 19.1749 3.67471 19.6385 3.17149C19.6459 3.16344 19.6533 3.15538 19.6616 3.14821C20.1235 2.66022 20.7306 2.3916 21.3748 2.3916C22.4611 2.3916 23.4047 3.14911 23.7223 4.27642C23.7932 4.52713 23.8295 4.78948 23.8295 5.05541C23.8295 5.76636 23.5746 6.43523 23.1111 6.93934C22.645 7.44165 22.0289 7.71833 21.3748 7.71833ZM20.4716 6.07169L20.4914 6.0905C20.4947 6.09318 20.4971 6.09587 20.4996 6.09856C20.7397 6.33494 21.0506 6.46477 21.374 6.46477C21.7204 6.46477 22.047 6.31793 22.2937 6.0511C22.5378 5.78517 22.6731 5.43059 22.6731 5.05362C22.6731 4.91215 22.6541 4.77426 22.617 4.64174C22.4487 4.04451 21.9489 3.64337 21.374 3.64337C21.0275 3.64337 20.7017 3.79022 20.4551 4.05704C20.4501 4.06242 20.4444 4.06779 20.4394 4.07316C20.2035 4.3373 20.0748 4.68472 20.0748 5.05273C20.0748 5.42522 20.2076 5.778 20.4493 6.04394C20.4567 6.05379 20.4642 6.06274 20.4716 6.07169Z" fill="#1B3954"/>
<path d="M21.3748 7.71825C20.7636 7.71825 20.1779 7.47291 19.7243 7.027C19.7201 7.02252 19.716 7.01894 19.7119 7.01447L19.6896 6.99119C19.6698 6.97059 19.65 6.95 19.6302 6.92851C19.1708 6.42171 18.92 5.75733 18.92 5.05354C18.92 4.34259 19.1749 3.67373 19.6385 3.17052C19.6459 3.16246 19.6533 3.1544 19.6616 3.14724C20.1235 2.65924 20.7306 2.39062 21.3748 2.39062C22.4611 2.39062 23.4047 3.14813 23.7223 4.27544C23.7932 4.52615 23.8295 4.7885 23.8295 5.05444C23.8295 5.76538 23.5746 6.43425 23.1111 6.93836C22.645 7.44157 22.0289 7.71825 21.3748 7.71825ZM20.5046 6.10295C20.7438 6.33575 21.0523 6.46469 21.374 6.46469C21.7204 6.46469 22.047 6.31785 22.2937 6.05102C22.5378 5.78508 22.6731 5.4305 22.6731 5.05354C22.6731 4.91207 22.6541 4.77418 22.617 4.64166C22.4487 4.04443 21.9489 3.64329 21.374 3.64329C21.0275 3.64329 20.7017 3.79013 20.4551 4.05696C20.4501 4.06233 20.4444 4.06771 20.4394 4.07308C20.2035 4.33722 20.0748 4.68464 20.0748 5.05265C20.0748 5.42513 20.2076 5.77792 20.4493 6.04385C20.4592 6.0537 20.4716 6.06713 20.4848 6.08146L20.5046 6.10295Z" fill="#16ADE1"/>
<path d="M28.8686 15.518C28.73 15.518 28.5947 15.4643 28.4883 15.3631L22.4801 9.6487C22.3284 9.50454 22.2574 9.28517 22.2921 9.06937C22.3267 8.85358 22.4628 8.67361 22.6509 8.59392C23.5021 8.23218 24.2024 7.50511 24.5736 6.59807C24.6536 6.40287 24.8194 6.26498 25.0149 6.23275C25.2096 6.20051 25.4059 6.27841 25.5362 6.43959L30.736 12.882C30.8606 13.0369 30.9076 13.2482 30.8614 13.4479C30.8152 13.6476 30.6816 13.8096 30.5042 13.8821C29.992 14.0908 29.5944 14.534 29.4146 15.0981C29.3519 15.2951 29.2026 15.4455 29.017 15.4992C28.9676 15.5109 28.9181 15.518 28.8686 15.518ZM23.8791 9.31203L28.6945 13.892C28.8851 13.5929 29.121 13.3324 29.3923 13.1184L25.2021 7.92774C24.8499 8.47751 24.3987 8.95028 23.8791 9.31203Z" fill="#1B3954"/>
<path d="M27.1756 24.0345H24.7902C24.4709 24.0345 24.2128 23.7543 24.2128 23.4078V18.0586C24.2128 17.8285 24.3291 17.6163 24.5155 17.5071L28.4624 15.1916C28.6414 15.0868 28.8583 15.0913 29.0323 15.205C29.2072 15.3178 29.3144 15.5229 29.3144 15.7431C29.3144 16.4559 29.6485 17.0961 30.2086 17.4605C30.3867 17.576 30.4931 17.7873 30.489 18.0121C30.4841 18.2368 30.3686 18.4428 30.1863 18.5493L27.753 19.9766V23.4069C27.753 23.7534 27.4948 24.0345 27.1756 24.0345ZM25.3676 22.781H26.5982V19.6032C26.5982 19.3731 26.7145 19.1609 26.9009 19.0516L28.8971 17.8805C28.6257 17.5411 28.4211 17.1426 28.2966 16.7137L25.3676 18.432V22.781Z" fill="#1B3954"/>
<path d="M37.5171 24.0328H35.1316C34.8124 24.0328 34.5542 23.7526 34.5542 23.406V19.9758L32.1226 18.5494C31.9403 18.4429 31.8248 18.2378 31.8199 18.0122C31.8149 17.7874 31.9221 17.577 32.0995 17.4606C32.6587 17.0953 32.9928 16.4542 32.9928 15.7468C32.9928 15.5256 33.1 15.3188 33.2749 15.206C33.4498 15.0932 33.6659 15.0851 33.8449 15.1908L37.7917 17.5063C37.9782 17.6155 38.0945 17.8277 38.0945 18.0578V23.4069C38.0945 23.7517 37.8363 24.0328 37.5171 24.0328ZM35.7098 22.7793H36.9405V18.4312L34.0115 16.7129C33.8878 17.1427 33.6824 17.5403 33.4118 17.8805L35.4071 19.0508C35.5935 19.1601 35.7098 19.3723 35.7098 19.6024V22.7793Z" fill="#1B3954"/>
<path d="M31.1552 18.9967C30.6116 18.9967 30.0787 18.8364 29.6144 18.5338C28.7177 17.95 28.1602 16.8818 28.1602 15.7473C28.161 15.382 28.2162 15.0274 28.3235 14.6871C28.6171 13.7676 29.2638 13.0459 30.0994 12.7056C30.4343 12.5668 30.7906 12.4961 31.1552 12.4961C32.8024 12.4961 34.1452 13.952 34.1494 15.741V15.7419V15.7473C34.1494 16.8818 33.5926 17.95 32.696 18.5347C32.2299 18.8373 31.6979 18.9967 31.1552 18.9967ZM31.1552 13.7497C30.9316 13.7497 30.713 13.7926 30.5077 13.8777C29.993 14.0872 29.5954 14.5304 29.4156 15.0945C29.3504 15.3032 29.3158 15.5225 29.3149 15.7437C29.3149 16.4547 29.649 17.094 30.2091 17.4584C30.4945 17.6446 30.8211 17.7422 31.1552 17.7422C31.4892 17.7422 31.8159 17.6446 32.1021 17.4584C32.6605 17.094 32.9946 16.4529 32.9946 15.7455L33.572 15.7401L32.9946 15.741C32.9921 14.6442 32.1673 13.7497 31.1552 13.7497Z" fill="#16ADE1"/>
<path d="M35.1324 30.0643H27.1759C26.8567 30.0643 26.5985 29.784 26.5985 29.4375V21.6502C26.5985 21.3037 26.8567 21.0234 27.1759 21.0234H35.1324C35.4516 21.0234 35.7097 21.3037 35.7097 21.6502V29.4375C35.7097 29.784 35.4507 30.0643 35.1324 30.0643ZM27.7525 28.8107H34.5541V22.277H27.7525V28.8107Z" fill="#16ADE1"/>
<path d="M22.886 33.9987C22.848 33.9987 22.8101 33.9942 22.773 33.9861C22.7367 33.9781 22.7004 33.9655 22.6649 33.9503C22.6303 33.9342 22.5973 33.9154 22.5659 33.893C22.5338 33.8697 22.5049 33.8437 22.4777 33.8151C22.3705 33.6978 22.3086 33.5366 22.3086 33.3719C22.3086 33.3307 22.3127 33.2895 22.3201 33.2492C22.3276 33.2089 22.3383 33.1695 22.3531 33.1319C22.3672 33.0943 22.3853 33.0576 22.4059 33.0236C22.4274 32.9895 22.4513 32.9573 22.4777 32.9286C22.5049 32.8991 22.5338 32.8731 22.5659 32.8507C22.5973 32.8275 22.6303 32.8087 22.6649 32.7925C22.7004 32.7773 22.7367 32.7648 22.773 32.7567C22.961 32.7164 23.1607 32.7827 23.2943 32.9286C23.3215 32.9573 23.3454 32.9895 23.366 33.0236C23.3875 33.0576 23.4048 33.0943 23.4197 33.1319C23.4337 33.1695 23.4452 33.2089 23.4527 33.2492C23.4601 33.2895 23.4634 33.3307 23.4634 33.3719C23.4634 33.5366 23.4023 33.6978 23.2943 33.8151C23.1871 33.9315 23.0378 33.9987 22.886 33.9987Z" fill="#1B3954"/>
<path d="M39.4234 39.9974H22.8861C22.5669 39.9974 22.3087 39.7172 22.3087 39.3706V35.2357C22.3087 34.8892 22.5669 34.6089 22.8861 34.6089C23.2053 34.6089 23.4635 34.8892 23.4635 35.2357V38.7439H38.8452V30.0612H23.4635V31.5055C23.4635 31.852 23.2053 32.1322 22.8861 32.1322C22.5669 32.1322 22.3087 31.852 22.3087 31.5055V29.4344C22.3087 29.0879 22.5669 28.8076 22.8861 28.8076H39.4226C39.7418 28.8076 40 29.0879 40 29.4344V39.3706C40.0008 39.7163 39.7418 39.9974 39.4234 39.9974Z" fill="#1B3954"/>
<path d="M13.4606 40.0006H0.577392C0.258177 40.0006 0 39.7204 0 39.3738V33.0389C0 32.6924 0.258177 32.4121 0.577392 32.4121H13.4606C13.7799 32.4121 14.038 32.6924 14.038 33.0389V39.3738C14.038 39.7195 13.7799 40.0006 13.4606 40.0006ZM1.15478 38.7471H12.8833V33.6657H1.15478V38.7471Z" fill="#1B3954"/>
</svg>
