<svg id="Layer_4" data-name="Layer 4" xmlns="http://www.w3.org/2000/svg" viewBox="0 0 512 512"><defs><style>.cls-1{fill:#77acf0;}.cls-1,.cls-2,.cls-3,.cls-4{stroke:#213e58;stroke-miterlimit:10;stroke-width:10px;}.cls-2{fill:#4c94f0;}.cls-3{fill:#6d6e71;}.cls-4{fill:#f1730d;}</style></defs><rect class="cls-1" x="23.67" y="23" width="466" height="350" rx="12"/><path class="cls-2" d="M35.67,17.67h442a12,12,0,0,1,12,12v84a0,0,0,0,1,0,0h-466a0,0,0,0,1,0,0v-84a12,12,0,0,1,12-12Z"/><circle class="cls-1" cx="68.33" cy="65.67" r="18"/><circle class="cls-1" cx="126.94" cy="65.67" r="18"/><circle class="cls-1" cx="185.56" cy="65.67" r="18"/><path class="cls-3" d="M205.38,159.46V210A24.36,24.36,0,0,1,181,234.38h0A24.36,24.36,0,0,1,156.66,210V158.2a2.19,2.19,0,0,0-3-2,65.8,65.8,0,0,0-9.39,115.87V367h70.84V272.05a65.8,65.8,0,0,0-6.55-114.57A2.2,2.2,0,0,0,205.38,159.46Z"/><path class="cls-3" d="M321.44,157h0a25.11,25.11,0,0,0-25.11,25.11V219a5.56,5.56,0,0,0,5.56,5.56h0a5.54,5.54,0,0,1,5.55,5.55v61.11h28V230.11a5.55,5.55,0,0,1,5.56-5.55h0a5.56,5.56,0,0,0,5.56-5.56V182.11A25.12,25.12,0,0,0,321.44,157Z"/><rect class="cls-4" x="288.11" y="271.22" width="66.67" height="107.56" rx="18.44"/><path class="cls-2" d="M394.61,442.89a14.13,14.13,0,0,1-10-24.12l27.57-27.57L354,333l-28.22,28.22a14.14,14.14,0,0,1-15.52,3l-4.2-1.79a14.12,14.12,0,0,1-8.6-13v-40.1H215.12v39.78a14.13,14.13,0,0,1-9,13.17L202,363.89a14.13,14.13,0,0,1-15.1-3.18l-28.29-28.29L100.21,390.8l27.49,27.49a14.12,14.12,0,0,1,2.56,16.48l-.42.82a14.13,14.13,0,0,1-12.55,7.63H67.67v45.56h58.22l82.89-.11a47.22,47.22,0,0,1,94.44-.12l82.89-.11h58.22V442.89Z"/><path class="cls-1" d="M209,488.78a47,47,0,0,1,94,0h52.67a99.67,99.67,0,0,0-199.34,0Z"/></svg>